<svg width="136" height="33" viewBox="0 0 136 33" fill="none" xmlns="http://www.w3.org/2000/svg">
<g clip-path="url(#clip0_89_233)">
<path fill-rule="evenodd" clip-rule="evenodd" d="M0.164062 0.146973H8.35297V8.15164H0.164062V0.146973ZM8.38102 8.15164L0.192107 16.3242L0.164062 24.5248H8.38102V32.6694H16.5419L24.7308 24.4968V16.3242L16.5419 8.15164H8.38102ZM8.38102 24.5248L8.35297 16.3242H16.5699V24.5248H8.38102Z" fill="url(#paint0_linear_89_233)"/>
</g>
<path d="M44.4788 23.4651C44.4788 20.1065 42.1231 17.3077 38.3932 17.3077C34.6634 17.3077 32.3637 20.1065 32.3637 23.4651C32.3637 26.8797 34.6634 29.6785 38.3932 29.6785C42.1231 29.6785 44.4788 26.9077 44.4788 23.4651ZM47.7039 23.4931C47.7039 28.531 43.8899 32.5893 38.7578 32.5893C36.346 32.6173 34.0183 31.5537 32.504 29.6505V32.1695H29.3069V7.67969H32.504V17.4476C33.9903 15.4884 36.346 14.3689 38.8139 14.3969C43.946 14.4249 47.7039 18.4552 47.7039 23.4931Z" fill="white"/>
<path d="M65.3578 23.4652C65.3578 20.1066 62.974 17.2518 59.2442 17.2518C55.5143 17.2518 53.1866 20.1066 53.1866 23.4932C53.1866 26.8798 55.5143 29.7346 59.2442 29.7346C62.974 29.7346 65.3858 26.8798 65.3578 23.4652ZM68.2464 14.8168V32.1696H65.1615V29.7066C63.6191 31.5819 61.2914 32.6454 58.8515 32.5894C53.7194 32.5894 49.9054 28.5871 49.9054 23.3813C49.9054 18.1754 53.7194 14.397 58.8515 14.397C61.2914 14.369 63.6191 15.4606 65.1615 17.3358V14.8168H68.2464Z" fill="white"/>
<path d="M70.4478 14.8445H73.4766V17.3914C74.5423 15.3203 76.281 14.3687 78.6087 14.3687C79.3379 14.3687 80.0109 14.4526 80.712 14.6205L80.4316 17.6433C79.8146 17.4474 79.1976 17.3634 78.5526 17.3634C75.8884 17.3634 73.6449 19.0987 73.6449 22.9891V32.1972H70.4478V14.8445Z" fill="white"/>
<path d="M95.6876 23.4369C95.6876 20.0783 93.3038 17.2235 89.5459 17.2235C85.788 17.2235 83.4884 20.0783 83.4884 23.4649C83.4884 26.8515 85.816 29.7063 89.5459 29.7063C93.2758 29.7063 95.6876 26.8795 95.6876 23.4369ZM98.5481 14.8165V32.1693H95.4632V29.7063C93.9208 31.5815 91.5931 32.6451 89.1533 32.5891C84.0212 32.5891 80.2072 28.5868 80.2072 23.3529C80.2072 18.1191 84.0212 14.3687 89.1533 14.3687C91.5931 14.3407 93.9208 15.4322 95.4632 17.3075V14.8165H98.5481Z" fill="white"/>
<path d="M106.737 24.2488L105.026 25.7042V32.3095H101.829V7.84766H105.026V22.0098L113.047 14.9847H117.366L109.009 22.2617L117.674 32.3095H113.468L106.737 24.2488Z" fill="white"/>
<path d="M132.313 23.577C132.313 20.2184 129.93 17.3636 126.172 17.3636C122.414 17.3636 120.114 20.2184 120.114 23.605C120.114 26.9916 122.47 29.8464 126.172 29.8464C129.873 29.8464 132.313 26.9916 132.313 23.577ZM135.202 14.9566V32.3094H132.145V29.8464C130.603 31.7217 128.275 32.7852 125.835 32.7292C120.703 32.7292 116.889 28.6989 116.889 23.4931C116.889 18.2873 120.703 14.5088 125.835 14.5088C128.275 14.4808 130.603 15.5724 132.145 17.4476V14.9287L135.202 14.9566Z" fill="white"/>
<defs>
<linearGradient id="paint0_linear_89_233" x1="0.164062" y1="0.146973" x2="22.9132" y2="40.1119" gradientUnits="userSpaceOnUse">
<stop offset="0.213542" stop-color="#D9D9D9"/>
<stop offset="0.911458"/>
</linearGradient>
<clipPath id="clip0_89_233">
<rect width="24.9796" height="32.6122" fill="white" transform="translate(0.164062 0.119141)"/>
</clipPath>
</defs>
</svg>
