<svg width="13" height="26" viewBox="0 0 13 26" fill="none" xmlns="http://www.w3.org/2000/svg">
<g clip-path="url(#clip0_89_247)">
<path d="M0.164062 7.58906H2.77901V6.25098C2.77901 4.75135 2.93755 3.63303 3.25664 2.89751C3.57573 2.16049 4.16224 1.55943 5.01866 1.09334C5.87359 0.629755 6.95479 0.397461 8.26276 0.397461C9.57073 0.397461 10.9178 0.598649 12.2017 1.00253L11.5651 4.28827C10.8155 4.10966 10.094 4.01885 9.40216 4.01885C8.71029 4.01885 8.23165 4.1804 7.93514 4.49798C7.63712 4.81708 7.48961 5.42817 7.48961 6.33376V7.58956H11.0122V11.2972H7.48961V25.3975H2.77901V11.2972H0.164062V7.58956V7.58906Z" fill="white"/>
</g>
<defs>
<clipPath id="clip0_89_247">
<rect width="12.0382" height="25" fill="white" transform="translate(0.164062 0.397461)"/>
</clipPath>
</defs>
</svg>
