<svg width="23" height="24" viewBox="0 0 23 24" fill="none" xmlns="http://www.w3.org/2000/svg">
<g clip-path="url(#clip0_89_250)">
<path d="M11.5011 23.3102C10.4019 23.3102 9.30259 23.3227 8.20333 23.3067C7.13418 23.2911 6.06151 23.2866 5.01292 23.0342C2.46722 22.4216 0.916413 20.8252 0.337432 18.2785C0.142767 17.4236 0.105138 16.5496 0.100623 15.6781C0.0865746 13.1545 0.0845677 10.6303 0.101124 8.10619C0.108148 7.06613 0.159323 6.02407 0.460855 5.01562C1.16175 2.6731 2.73614 1.27181 5.10122 0.731464C5.95665 0.536297 6.83064 0.497163 7.70162 0.492146C10.2313 0.477596 12.7609 0.475589 15.2906 0.492146C16.2955 0.49917 17.302 0.547334 18.2798 0.824783C20.69 1.50812 22.1315 3.09956 22.6718 5.52586C22.8981 6.54284 22.9081 7.58089 22.9146 8.61543C22.9277 10.7964 22.9287 12.9773 22.9146 15.1583C22.9076 16.233 22.8991 17.3122 22.6477 18.3668C22.0351 20.9361 20.4246 22.4954 17.8533 23.0653C16.8594 23.2856 15.8445 23.2921 14.8335 23.3062C13.7227 23.3217 12.6119 23.3097 11.5011 23.3097V23.3102ZM11.5081 2.47693C11.5081 2.48847 11.5081 2.50001 11.5076 2.51155C10.5885 2.51155 9.66935 2.49801 8.75121 2.51506C7.70011 2.53513 6.6435 2.51205 5.60545 2.71876C3.95631 3.04738 2.86708 3.99864 2.41002 5.63523C2.20683 6.36373 2.16368 7.1148 2.15766 7.86436C2.13809 10.2139 2.12053 12.5634 2.13006 14.913C2.13408 15.8763 2.13458 16.8451 2.32774 17.7973C2.66389 19.4525 3.62016 20.5417 5.26579 20.9938C5.96668 21.1864 6.68815 21.2361 7.40862 21.2391C10.1359 21.2506 12.8633 21.2537 15.5906 21.2366C16.1866 21.2331 16.7897 21.1779 17.3757 21.069C19.0489 20.7585 20.1497 19.7896 20.6047 18.128C20.8044 17.398 20.8486 16.6469 20.8521 15.8978C20.8641 13.2287 20.8636 10.5596 20.8521 7.89045C20.8491 7.20561 20.8054 6.51976 20.6514 5.84596C20.387 4.6885 19.7859 3.77086 18.7364 3.18636C17.9788 2.76442 17.1424 2.60889 16.2875 2.5828C14.695 2.53413 13.1016 2.51055 11.5091 2.47643L11.5081 2.47693Z" fill="white"/>
<path d="M11.503 6.02789C14.7772 6.04244 17.3881 8.66742 17.3725 11.9281C17.357 15.1742 14.7114 17.7821 11.4533 17.7625C8.21372 17.743 5.61935 15.0944 5.63841 11.8257C5.65698 8.62879 8.30253 6.01334 11.503 6.02789ZM11.509 8.06988C9.4073 8.06536 7.69445 9.76969 7.6799 11.8804C7.66535 13.9856 9.38372 15.7105 11.499 15.7135C13.6172 15.7165 15.324 14.0102 15.3235 11.8904C15.3235 9.78374 13.6167 8.07489 11.5085 8.06988H11.509Z" fill="white"/>
<path d="M17.6216 7.16695C16.8761 7.18602 16.2509 6.58697 16.2269 5.83088C16.2033 5.08985 16.8129 4.44866 17.5579 4.4306C18.3185 4.41203 18.9512 5.01108 18.9697 5.76767C18.9883 6.52375 18.3872 7.14789 17.6211 7.16695H17.6216Z" fill="white"/>
</g>
<defs>
<clipPath id="clip0_89_250">
<rect width="22.8361" height="22.8346" fill="white" transform="translate(0.0894814 0.480469)"/>
</clipPath>
</defs>
</svg>
