<svg width="20" height="19" viewBox="0 0 20 19" fill="none" xmlns="http://www.w3.org/2000/svg">
<g clip-path="url(#clip0_89_255)">
<path d="M0.812862 4.10323V0.922852H4.25463V4.10323H0.812862ZM0.812862 18.8717V5.86726H4.25463V18.8717H0.812862Z" fill="white"/>
<path d="M19.6117 18.8717H16.1719V12.2351C16.1719 10.8318 16.0982 9.92666 15.9502 9.51375C15.8047 9.10033 15.5649 8.77923 15.2342 8.54995C14.9026 8.32016 14.5063 8.20878 14.0407 8.20878C13.4441 8.20878 12.9093 8.37284 12.4357 8.70046C11.9621 9.02156 11.6374 9.45454 11.4618 9.99238C11.2867 10.5297 11.1994 11.5332 11.1994 12.9826V18.8717H7.75817V5.86727H10.9536V7.7758C12.0895 6.30678 13.5174 5.57227 15.2388 5.57227C15.9994 5.57227 16.6927 5.71676 17.3224 5.98568C17.9505 6.26112 18.4262 6.60831 18.7488 7.03477C19.0719 7.4547 19.2946 7.93986 19.4211 8.4777C19.549 9.00902 19.6112 9.78267 19.6112 10.7926V18.8723L19.6117 18.8717Z" fill="white"/>
</g>
<defs>
<clipPath id="clip0_89_255">
<rect width="18.7983" height="17.9489" fill="white" transform="translate(0.812862 0.922852)"/>
</clipPath>
</defs>
</svg>
