<svg width="82" height="56" viewBox="0 0 82 56" fill="none" xmlns="http://www.w3.org/2000/svg">
<path d="M37.9891 11.5652L40.1557 13.7317L43.7666 8.67642M40.8779 1.90137C38.6976 3.97185 35.7939 5.10746 32.7875 5.0655C32.405 6.2306 32.2107 7.44919 32.2116 8.67546C32.2116 14.0601 35.8938 18.5838 40.8779 19.8674C45.8619 18.5848 49.5441 14.061 49.5441 8.67642C49.5441 7.415 49.3419 6.20077 48.9683 5.06453H48.8219C45.7444 5.06453 42.9481 3.86282 40.8779 1.90137Z" stroke="white" stroke-width="0.866622" stroke-linecap="round" stroke-linejoin="round"/>
<path d="M20.549 37.6904L18.7104 34.8244H17.272V37.6904H16.3743V30.4767H19.2728C20.5923 30.4767 21.5332 31.3203 21.5332 32.6505C21.5332 33.9484 20.6463 34.6622 19.6622 34.7487L21.6089 37.6904H20.549ZM20.6031 32.6505C20.6031 31.8394 20.0191 31.277 19.1647 31.277H17.272V34.0349H19.1647C20.0191 34.0349 20.6031 33.4617 20.6031 32.6505ZM22.2916 35.0732C22.2916 33.559 23.3731 32.3369 24.8656 32.3369C26.4446 32.3369 27.3748 33.5698 27.3748 35.138V35.3435H23.146C23.2109 36.3277 23.9031 37.1497 25.0279 37.1497C25.6227 37.1497 26.2283 36.9117 26.6393 36.4899L27.0287 37.0199C26.5095 37.539 25.8066 37.8202 24.9522 37.8202C23.4056 37.8202 22.2916 36.7062 22.2916 35.0732ZM24.8548 33.0074C23.7408 33.0074 23.1893 33.9484 23.146 34.7487H26.5744C26.5636 33.97 26.0445 33.0074 24.8548 33.0074ZM28.6777 39.0315L29.0887 38.4259C29.5213 38.945 30.0404 39.1397 30.7867 39.1397C31.6519 39.1397 32.4631 38.7179 32.4631 37.5715V36.8252C32.0845 37.3552 31.4464 37.7553 30.711 37.7553C29.3483 37.7553 28.3857 36.7387 28.3857 35.0515C28.3857 33.3752 29.3375 32.3369 30.711 32.3369C31.414 32.3369 32.0413 32.683 32.4631 33.2562V32.4667H33.2742V37.539C33.2742 39.2694 32.0629 39.8102 30.7867 39.8102C29.8999 39.8102 29.2942 39.6372 28.6777 39.0315ZM32.4631 36.1871V33.9051C32.1819 33.4509 31.5546 33.0615 30.9057 33.0615C29.8566 33.0615 29.2293 33.8943 29.2293 35.0515C29.2293 36.1979 29.8566 37.0415 30.9057 37.0415C31.5546 37.0415 32.1819 36.6414 32.4631 36.1871ZM38.4246 37.6904V36.955C38.0244 37.4092 37.3431 37.8202 36.5644 37.8202C35.472 37.8202 34.8988 37.2903 34.8988 36.1547V32.4667H35.71V35.9059C35.71 36.8252 36.175 37.0956 36.878 37.0956C37.5161 37.0956 38.1218 36.7279 38.4246 36.3061V32.4667H39.2357V37.6904H38.4246ZM40.8556 37.6904V30.4767H41.6668V37.6904H40.8556ZM46.551 37.6904V37.0956C46.1184 37.5715 45.5236 37.8202 44.8206 37.8202C43.9338 37.8202 42.9928 37.2254 42.9928 36.0898C42.9928 34.9217 43.9338 34.3702 44.8206 34.3702C45.5344 34.3702 46.1292 34.5973 46.551 35.084V34.143C46.551 33.4401 45.9886 33.0399 45.2316 33.0399C44.6043 33.0399 44.096 33.267 43.6309 33.7645L43.2524 33.2021C43.8148 32.6181 44.4853 32.3369 45.3397 32.3369C46.4429 32.3369 47.3622 32.8344 47.3622 34.0998V37.6904H46.551ZM46.551 36.5873V35.6031C46.2374 35.1705 45.6858 34.9542 45.1126 34.9542C44.3555 34.9542 43.8256 35.4301 43.8256 36.1006C43.8256 36.7603 44.3555 37.2362 45.1126 37.2362C45.6858 37.2362 46.2374 37.0199 46.551 36.5873ZM50.3076 37.8202C49.5397 37.8202 49.1504 37.3768 49.1504 36.5981V33.1805H48.2852V32.4667H49.1504V31.0391H49.9615V32.4667H51.0214V33.1805H49.9615V36.4251C49.9615 36.8144 50.1346 37.0956 50.4915 37.0956C50.7186 37.0956 50.9349 36.9983 51.0431 36.8793L51.281 37.4849C51.0755 37.6796 50.7835 37.8202 50.3076 37.8202ZM51.8644 35.0732C51.8644 33.559 52.9459 32.3369 54.4384 32.3369C56.0175 32.3369 56.9476 33.5698 56.9476 35.138V35.3435H52.7188C52.7837 36.3277 53.4759 37.1497 54.6007 37.1497C55.1955 37.1497 55.8012 36.9117 56.2121 36.4899L56.6015 37.0199C56.0824 37.539 55.3794 37.8202 54.525 37.8202C52.9784 37.8202 51.8644 36.7062 51.8644 35.0732ZM54.4276 33.0074C53.3137 33.0074 52.7621 33.9484 52.7188 34.7487H56.1472C56.1364 33.97 55.6173 33.0074 54.4276 33.0074ZM62.0467 37.6904V36.9117C61.6573 37.4417 61.0192 37.8202 60.2838 37.8202C58.9211 37.8202 57.9585 36.782 57.9585 35.084C57.9585 33.4184 58.9103 32.3369 60.2838 32.3369C60.9868 32.3369 61.6249 32.683 62.0467 33.2562V30.4767H62.8578V37.6904H62.0467ZM62.0467 36.2736V33.9051C61.7547 33.4509 61.1274 33.0615 60.4785 33.0615C59.4294 33.0615 58.8021 33.9267 58.8021 35.084C58.8021 36.2412 59.4294 37.0956 60.4785 37.0956C61.1274 37.0956 61.7547 36.7279 62.0467 36.2736ZM12.2017 50.6904V43.4767H13.0128V46.2562C13.4346 45.683 14.0619 45.3369 14.7757 45.3369C16.1384 45.3369 17.101 46.4184 17.101 48.084C17.101 49.782 16.1384 50.8202 14.7757 50.8202C14.0403 50.8202 13.4022 50.4417 13.0128 49.9117V50.6904H12.2017ZM13.0128 49.2736C13.294 49.7279 13.9321 50.0956 14.5702 50.0956C15.6301 50.0956 16.2574 49.2412 16.2574 48.084C16.2574 46.9267 15.6301 46.0615 14.5702 46.0615C13.9321 46.0615 13.294 46.4509 13.0128 46.9051V49.2736ZM18.2603 51.9991C18.3793 52.0531 18.574 52.0856 18.7038 52.0856C19.0607 52.0856 19.2986 51.9666 19.4824 51.534L19.8285 50.7445L17.6439 45.4667H18.5199L20.2611 49.7495L21.9916 45.4667H22.8784L20.2611 51.7503C19.9475 52.5074 19.4176 52.7994 18.7254 52.8102C18.5523 52.8102 18.282 52.7778 18.1305 52.7345L18.2603 51.9991ZM27.8323 50.8202C27.0644 50.8202 26.6751 50.3768 26.6751 49.5981V46.1805H25.8098V45.4667H26.6751V44.0391H27.4862V45.4667H28.5461V46.1805H27.4862V49.4251C27.4862 49.8144 27.6592 50.0956 28.0161 50.0956C28.2433 50.0956 28.4596 49.9983 28.5677 49.8793L28.8057 50.4849C28.6002 50.6796 28.3082 50.8202 27.8323 50.8202ZM33.2285 50.6904V47.2512C33.2285 46.3319 32.7526 46.0615 32.0496 46.0615C31.4223 46.0615 30.8167 46.4509 30.5031 46.8727V50.6904H29.6919V43.4767H30.5031V46.2238C30.8708 45.7911 31.5846 45.3369 32.3741 45.3369C33.4664 45.3369 34.0396 45.8669 34.0396 47.0024V50.6904H33.2285ZM35.3565 48.0732C35.3565 46.559 36.438 45.3369 37.9305 45.3369C39.5095 45.3369 40.4396 46.5698 40.4396 48.138V48.3435H36.2109C36.2758 49.3277 36.9679 50.1497 38.0927 50.1497C38.6875 50.1497 39.2932 49.9117 39.7042 49.4899L40.0935 50.0199C39.5744 50.539 38.8714 50.8202 38.017 50.8202C36.4704 50.8202 35.3565 49.7062 35.3565 48.0732ZM37.9197 46.0074C36.8057 46.0074 36.2541 46.9484 36.2109 47.7487H39.6393C39.6285 46.97 39.1093 46.0074 37.9197 46.0074ZM44.5741 50.6904V43.4767H47.04C49.2787 43.4767 50.7388 45.0449 50.7388 47.089C50.7388 49.1439 49.2787 50.6904 47.04 50.6904H44.5741ZM45.4718 49.8901H47.04C48.7921 49.8901 49.8087 48.6355 49.8087 47.089C49.8087 45.5316 48.8245 44.277 47.04 44.277H45.4718V49.8901ZM52.1469 50.6904V43.4767H56.8731V44.277H53.0445V46.6023H56.7974V47.4026H53.0445V50.6904H52.1469ZM57.6605 49.6738L58.1905 48.9924C58.6663 49.5224 59.445 50.0199 60.4617 50.0199C61.7487 50.0199 62.1597 49.3277 62.1597 48.7761C62.1597 47.9109 61.2836 47.673 60.3319 47.4134C59.1747 47.1106 57.8876 46.7861 57.8876 45.3694C57.8876 44.1797 58.9475 43.3685 60.3643 43.3685C61.4675 43.3685 62.3219 43.7363 62.9275 44.3744L62.3868 45.0341C61.846 44.4392 61.0889 44.1689 60.2994 44.1689C59.4342 44.1689 58.8178 44.6339 58.8178 45.3153C58.8178 46.0399 59.6505 46.2562 60.5698 46.5049C61.7487 46.8186 63.0898 47.1863 63.0898 48.7004C63.0898 49.7495 62.376 50.8202 60.4292 50.8202C59.1747 50.8202 58.2554 50.3443 57.6605 49.6738ZM69.505 50.6904L68.8669 49.0898H65.2114L64.5733 50.6904H63.5783L66.4768 43.4767H67.5907L70.5 50.6904H69.505ZM67.0392 44.277L65.471 48.2895H68.5966L67.0392 44.277Z" fill="white"/>
</svg>
