<svg width="99" height="69" viewBox="0 0 99 69" fill="none" xmlns="http://www.w3.org/2000/svg">
<path d="M26.8498 13.1146L27.616 12.0538C28.1582 12.6314 29.0069 13.1382 30.1031 13.1382C31.2347 13.1382 31.6827 12.5842 31.6827 12.0656C31.6827 11.3583 30.8457 11.1461 29.891 10.8986C28.6061 10.5803 27.0973 10.2031 27.0973 8.54112C27.0973 7.24451 28.2407 6.24258 29.9617 6.24258C31.1876 6.24258 32.1777 6.63156 32.9085 7.33881L32.1188 8.36431C31.5058 7.75137 30.6689 7.46847 29.8438 7.46847C29.0305 7.46847 28.5118 7.85745 28.5118 8.44682C28.5118 9.05977 29.3134 9.26016 30.2446 9.4959C31.5412 9.82595 33.0854 10.2267 33.0854 11.9359C33.0854 13.2443 32.1659 14.3641 30.0442 14.3641C28.5944 14.3641 27.5453 13.8572 26.8498 13.1146ZM39.3769 12.6785C39.8484 13.1736 40.3435 13.6804 40.8975 14.2227H39.2826C39.094 14.0458 38.8465 13.7983 38.5871 13.539C37.9978 14.0341 37.2787 14.3641 36.3829 14.3641C34.9802 14.3641 33.8486 13.6215 33.8486 12.1245C33.8486 10.9104 34.6619 10.2974 35.5578 9.82595C35.2277 9.23658 35.0038 8.64721 35.0038 8.10499C35.0038 7.04412 35.9114 6.24258 37.1373 6.24258C38.2099 6.24258 39.0822 6.83195 39.0822 7.85745C39.0822 9.04798 38.1038 9.55484 37.1255 10.0381C37.3848 10.4035 37.6677 10.7454 37.8917 11.0047C38.151 11.323 38.4103 11.6176 38.6696 11.9123C39.0468 11.3465 39.3062 10.7218 39.4476 10.2739L40.4613 10.7336C40.1902 11.3583 39.8366 12.0538 39.3769 12.6785ZM36.2532 8.12856C36.2532 8.48219 36.4182 8.89475 36.6422 9.3073C37.3848 8.95368 37.986 8.57649 37.986 7.91639C37.986 7.43311 37.6441 7.162 37.1962 7.162C36.6658 7.162 36.2532 7.56277 36.2532 8.12856ZM36.5361 13.374C37.043 13.374 37.5027 13.15 37.8917 12.82C37.5027 12.3956 37.1373 11.983 36.9251 11.7355C36.6422 11.3937 36.3357 11.0047 36.0528 10.6039C35.546 10.9458 35.1688 11.3583 35.1688 12.0184C35.1688 12.8789 35.8171 13.374 36.5361 13.374ZM41.9298 14.2227V6.36045H45.3835C47.0337 6.36045 47.9532 7.49204 47.9532 8.82402C47.9532 10.156 47.0219 11.2876 45.3835 11.2876H43.3089V14.2227H41.9298ZM46.5387 8.82402C46.5387 8.06963 45.9729 7.57456 45.1949 7.57456H43.3089V10.0735H45.1949C45.9729 10.0735 46.5387 9.57842 46.5387 8.82402ZM51.9518 13.15L52.7416 12.207C53.272 12.8082 53.9793 13.1382 54.8633 13.1382C55.8535 13.1382 56.4782 12.5253 56.4782 11.7591C56.4782 10.9104 55.8653 10.3564 54.8987 10.3564C54.2268 10.3564 53.6728 10.5686 53.1777 11.0401L52.1994 10.7572V6.36045H57.3505V7.57456H53.5785V9.84953C53.9557 9.47233 54.604 9.16586 55.3584 9.16586C56.6786 9.16586 57.8691 10.0971 57.8691 11.7001C57.8691 13.3386 56.6314 14.3641 54.8751 14.3641C53.5196 14.3641 52.5884 13.9044 51.9518 13.15ZM58.8429 10.2974C58.8429 8.31716 59.7859 6.24258 61.9901 6.24258C64.1944 6.24258 65.1374 8.31716 65.1374 10.2974C65.1374 12.2777 64.1944 14.3641 61.9901 14.3641C59.7859 14.3641 58.8429 12.2777 58.8429 10.2974ZM63.7347 10.2974C63.7347 8.80045 63.2749 7.46847 61.9901 7.46847C60.7053 7.46847 60.2456 8.80045 60.2456 10.2974C60.2456 11.7944 60.7053 13.1382 61.9901 13.1382C63.2749 13.1382 63.7347 11.7944 63.7347 10.2974ZM66.1064 10.2974C66.1064 8.31716 67.0494 6.24258 69.2536 6.24258C71.4579 6.24258 72.4009 8.31716 72.4009 10.2974C72.4009 12.2777 71.4579 14.3641 69.2536 14.3641C67.0494 14.3641 66.1064 12.2777 66.1064 10.2974ZM70.9982 10.2974C70.9982 8.80045 70.5385 7.46847 69.2536 7.46847C67.9688 7.46847 67.5091 8.80045 67.5091 10.2974C67.5091 11.7944 67.9688 13.1382 69.2536 13.1382C70.5385 13.1382 70.9982 11.7944 70.9982 10.2974Z" fill="white"/>
<path d="M12.8981 37.105V33.7955H8.68014V37.105H7.78247V29.8912H8.68014V32.9952H12.8981V29.8912H13.7957V37.105H12.8981ZM18.7157 37.105V36.5101C18.2831 36.986 17.6883 37.2348 16.9853 37.2348C16.0984 37.2348 15.1575 36.6399 15.1575 35.5043C15.1575 34.3363 16.0984 33.7847 16.9853 33.7847C17.6991 33.7847 18.2939 34.0118 18.7157 34.4985V33.5576C18.7157 32.8546 18.1533 32.4544 17.3963 32.4544C16.769 32.4544 16.2607 32.6816 15.7956 33.1791L15.4171 32.6167C15.9795 32.0327 16.65 31.7515 17.5044 31.7515C18.6076 31.7515 19.5269 32.249 19.5269 33.5143V37.105H18.7157ZM18.7157 36.0018V35.0176C18.4021 34.585 17.8505 34.3687 17.2773 34.3687C16.5202 34.3687 15.9903 34.8446 15.9903 35.5151C15.9903 36.1749 16.5202 36.6507 17.2773 36.6507C17.8505 36.6507 18.4021 36.4344 18.7157 36.0018ZM20.6986 36.4128L21.1204 35.8288C21.4665 36.2289 22.1262 36.575 22.84 36.575C23.6403 36.575 24.073 36.2181 24.073 35.7098C24.073 35.1366 23.4349 34.9528 22.7319 34.7797C21.845 34.5742 20.8392 34.3363 20.8392 33.2548C20.8392 32.4436 21.5422 31.7515 22.7859 31.7515C23.6728 31.7515 24.3001 32.0867 24.7219 32.5085L24.3433 33.0709C24.0297 32.6924 23.4565 32.4112 22.7859 32.4112C22.0721 32.4112 21.6287 32.7356 21.6287 33.2007C21.6287 33.709 22.2236 33.8712 22.9049 34.0335C23.8134 34.239 24.8625 34.4985 24.8625 35.6557C24.8625 36.5318 24.1595 37.2348 22.8076 37.2348C21.9532 37.2348 21.2286 36.9752 20.6986 36.4128ZM33.1756 37.105L31.337 34.239H29.8986V37.105H29.001V29.8912H31.8994C33.2189 29.8912 34.1598 30.7348 34.1598 32.0651C34.1598 33.3629 33.273 34.0767 32.2888 34.1632L34.2355 37.105H33.1756ZM33.2297 32.0651C33.2297 31.254 32.6457 30.6916 31.7913 30.6916H29.8986V33.4494H31.7913C32.6457 33.4494 33.2297 32.8762 33.2297 32.0651ZM34.9182 34.4877C34.9182 32.9736 35.9998 31.7515 37.4923 31.7515C39.0713 31.7515 40.0014 32.9844 40.0014 34.5526V34.7581H35.7726C35.8375 35.7423 36.5297 36.5642 37.6545 36.5642C38.2493 36.5642 38.855 36.3263 39.2659 35.9045L39.6553 36.4344C39.1362 36.9536 38.4332 37.2348 37.5788 37.2348C36.0322 37.2348 34.9182 36.1208 34.9182 34.4877ZM37.4814 32.422C36.3675 32.422 35.8159 33.3629 35.7726 34.1632H39.2011C39.1902 33.3846 38.6711 32.422 37.4814 32.422ZM42.6346 37.2348C41.8667 37.2348 41.4774 36.7913 41.4774 36.0126V32.595H40.6122V31.8812H41.4774V30.4536H42.2885V31.8812H43.3484V32.595H42.2885V35.8396C42.2885 36.2289 42.4616 36.5101 42.8185 36.5101C43.0456 36.5101 43.2619 36.4128 43.3701 36.2938L43.608 36.8995C43.4025 37.0942 43.1105 37.2348 42.6346 37.2348ZM48.02 37.105V36.3695C47.6198 36.8238 46.9385 37.2348 46.1598 37.2348C45.0675 37.2348 44.4942 36.7048 44.4942 35.5692V31.8812H45.3054V35.3205C45.3054 36.2398 45.7704 36.5101 46.4734 36.5101C47.1115 36.5101 47.7172 36.1424 48.02 35.7206V31.8812H48.8311V37.105H48.02ZM50.4511 37.105V31.8812H51.2622V32.7248C51.684 32.1732 52.2896 31.7731 53.0034 31.7731V32.6059C52.9061 32.5842 52.8088 32.5734 52.679 32.5734C52.1815 32.5734 51.5001 32.9844 51.2622 33.4062V37.105H50.4511ZM57.5467 37.105V33.6874C57.5467 32.7681 57.0816 32.4761 56.3786 32.4761C55.7405 32.4761 55.1349 32.8654 54.8321 33.2872V37.105H54.0209V31.8812H54.8321V32.6383C55.1998 32.2057 55.9136 31.7515 56.6923 31.7515C57.7846 31.7515 58.3578 32.303 58.3578 33.4386V37.105H57.5467ZM59.6749 34.4877C59.6749 32.9736 60.7564 31.7515 62.2489 31.7515C63.8279 31.7515 64.758 32.9844 64.758 34.5526V34.7581H60.5293C60.5942 35.7423 61.2864 36.5642 62.4111 36.5642C63.006 36.5642 63.6116 36.3263 64.0226 35.9045L64.412 36.4344C63.8928 36.9536 63.1898 37.2348 62.3354 37.2348C60.7889 37.2348 59.6749 36.1208 59.6749 34.4877ZM62.2381 32.422C61.1241 32.422 60.5726 33.3629 60.5293 34.1632H63.9577C63.9469 33.3846 63.4278 32.422 62.2381 32.422ZM69.8572 37.105V36.3263C69.4678 36.8562 68.8297 37.2348 68.0943 37.2348C66.7316 37.2348 65.769 36.1965 65.769 34.4985C65.769 32.833 66.7208 31.7515 68.0943 31.7515C68.7973 31.7515 69.4354 32.0975 69.8572 32.6707V29.8912H70.6683V37.105H69.8572ZM69.8572 35.6882V33.3197C69.5652 32.8654 68.9379 32.4761 68.289 32.4761C67.2399 32.4761 66.6126 33.3413 66.6126 34.4985C66.6126 35.6557 67.2399 36.5101 68.289 36.5101C68.9379 36.5101 69.5652 36.1424 69.8572 35.6882ZM76.1949 37.105V31.0809L75.0377 32.303L74.497 31.7515L76.3031 29.8912H77.0926V37.105H76.1949ZM78.4863 33.5035C78.4863 31.7406 79.265 29.7831 81.2442 29.7831C83.2126 29.7831 84.0021 31.7406 84.0021 33.5035C84.0021 35.2556 83.2126 37.2348 81.2442 37.2348C79.265 37.2348 78.4863 35.2556 78.4863 33.5035ZM83.0828 33.5035C83.0828 32.0651 82.6177 30.5834 81.2442 30.5834C79.8707 30.5834 79.4056 32.0651 79.4056 33.5035C79.4056 34.9419 79.8707 36.4344 81.2442 36.4344C82.6177 36.4344 83.0828 34.9419 83.0828 33.5035ZM84.8922 31.5784C84.8922 30.5618 85.5952 29.7831 86.6227 29.7831C87.6609 29.7831 88.3747 30.5618 88.3747 31.5784C88.3747 32.5842 87.6609 33.3413 86.6227 33.3413C85.5952 33.3413 84.8922 32.5842 84.8922 31.5784ZM85.9413 37.105L90.5486 29.8912H91.1434L86.5253 37.105H85.9413ZM87.7258 31.5784C87.7258 30.8646 87.2716 30.3347 86.6227 30.3347C85.9846 30.3347 85.5411 30.8646 85.5411 31.5784C85.5411 32.2598 85.9846 32.8005 86.6227 32.8005C87.2716 32.8005 87.7258 32.2598 87.7258 31.5784ZM88.6559 35.4719C88.6559 34.4553 89.3589 33.6766 90.3864 33.6766C91.4138 33.6766 92.1276 34.4553 92.1276 35.4719C92.1276 36.4777 91.4138 37.2348 90.3864 37.2348C89.3589 37.2348 88.6559 36.4777 88.6559 35.4719ZM91.4895 35.4719C91.4895 34.7581 91.0353 34.2281 90.3864 34.2281C89.7374 34.2281 89.294 34.7581 89.294 35.4719C89.294 36.1532 89.7374 36.694 90.3864 36.694C91.0353 36.694 91.4895 36.1532 91.4895 35.4719ZM17.1262 50.105V49.5101C16.6936 49.986 16.0987 50.2348 15.3957 50.2348C14.5089 50.2348 13.568 49.6399 13.568 48.5043C13.568 47.3363 14.5089 46.7847 15.3957 46.7847C16.1095 46.7847 16.7044 47.0118 17.1262 47.4985V46.5576C17.1262 45.8546 16.5638 45.4544 15.8067 45.4544C15.1794 45.4544 14.6711 45.6816 14.2061 46.1791L13.8275 45.6167C14.3899 45.0327 15.0605 44.7515 15.9149 44.7515C17.018 44.7515 17.9373 45.249 17.9373 46.5143V50.105H17.1262ZM17.1262 49.0018V48.0176C16.8125 47.585 16.261 47.3687 15.6877 47.3687C14.9307 47.3687 14.4007 47.8446 14.4007 48.5151C14.4007 49.1749 14.9307 49.6507 15.6877 49.6507C16.261 49.6507 16.8125 49.4344 17.1262 49.0018ZM24.4822 50.105V47.0551L21.6378 42.8912H22.6869L24.9256 46.244L27.1644 42.8912H28.2134L25.3799 47.0551V50.105H24.4822ZM27.4458 47.4877C27.4458 45.9736 28.5273 44.7515 30.0198 44.7515C31.5989 44.7515 32.529 45.9844 32.529 47.5526V47.7581H28.3002C28.3651 48.7423 29.0573 49.5642 30.1821 49.5642C30.7769 49.5642 31.3825 49.3263 31.7935 48.9045L32.1829 49.4344C31.6637 49.9536 30.9608 50.2348 30.1064 50.2348C28.5598 50.2348 27.4458 49.1208 27.4458 47.4877ZM30.009 45.422C28.8951 45.422 28.3435 46.3629 28.3002 47.1632H31.7286C31.7178 46.3846 31.1987 45.422 30.009 45.422ZM37.1089 50.105V49.5101C36.6763 49.986 36.0815 50.2348 35.3785 50.2348C34.4917 50.2348 33.5507 49.6399 33.5507 48.5043C33.5507 47.3363 34.4917 46.7847 35.3785 46.7847C36.0923 46.7847 36.6871 47.0118 37.1089 47.4985V46.5576C37.1089 45.8546 36.5466 45.4544 35.7895 45.4544C35.1622 45.4544 34.6539 45.6816 34.1888 46.1791L33.8103 45.6167C34.3727 45.0327 35.0432 44.7515 35.8976 44.7515C37.0008 44.7515 37.9201 45.249 37.9201 46.5143V50.105H37.1089ZM37.1089 49.0018V48.0176C36.7953 47.585 36.2437 47.3687 35.6705 47.3687C34.9135 47.3687 34.3835 47.8446 34.3835 48.5151C34.3835 49.1749 34.9135 49.6507 35.6705 49.6507C36.2437 49.6507 36.7953 49.4344 37.1089 49.0018ZM39.5461 50.105V44.8812H40.3572V45.7248C40.779 45.1732 41.3847 44.7731 42.0985 44.7731V45.6059C42.0011 45.5842 41.9038 45.5734 41.774 45.5734C41.2765 45.5734 40.5952 45.9844 40.3572 46.4062V50.105H39.5461ZM45.6447 46.5035C45.6447 44.3729 47.0831 42.7723 49.2245 42.7723C51.3551 42.7723 52.8043 44.3729 52.8043 46.5035C52.8043 48.6341 51.3551 50.2348 49.2245 50.2348C47.0831 50.2348 45.6447 48.6341 45.6447 46.5035ZM51.8742 46.5035C51.8742 44.8163 50.836 43.5726 49.2245 43.5726C47.6022 43.5726 46.5748 44.8163 46.5748 46.5035C46.5748 48.1799 47.6022 49.4344 49.2245 49.4344C50.836 49.4344 51.8742 48.1799 51.8742 46.5035ZM55.5692 50.105L53.3954 44.8812H54.2714L56.0126 49.1641L57.7431 44.8812H58.6299L56.4561 50.105H55.5692ZM59.1732 47.4877C59.1732 45.9736 60.2547 44.7515 61.7472 44.7515C63.3263 44.7515 64.2564 45.9844 64.2564 47.5526V47.7581H60.0276C60.0925 48.7423 60.7847 49.5642 61.9095 49.5642C62.5043 49.5642 63.1099 49.3263 63.5209 48.9045L63.9103 49.4344C63.3911 49.9536 62.6882 50.2348 61.8338 50.2348C60.2872 50.2348 59.1732 49.1208 59.1732 47.4877ZM61.7364 45.422C60.6225 45.422 60.0709 46.3629 60.0276 47.1632H63.456C63.4452 46.3846 62.9261 45.422 61.7364 45.422ZM65.5702 50.105V44.8812H66.3813V45.7248C66.8031 45.1732 67.4087 44.7731 68.1225 44.7731V45.6059C68.0252 45.5842 67.9279 45.5734 67.7981 45.5734C67.3006 45.5734 66.6192 45.9844 66.3813 46.4062V50.105H65.5702ZM73.2478 50.2348C72.4799 50.2348 72.0905 49.7913 72.0905 49.0126V45.595H71.2253V44.8812H72.0905V43.4536H72.9017V44.8812H73.9616V45.595H72.9017V48.8396C72.9017 49.2289 73.0747 49.5101 73.4316 49.5101C73.6587 49.5101 73.875 49.4128 73.9832 49.2938L74.2211 49.8995C74.0156 50.0942 73.7236 50.2348 73.2478 50.2348ZM78.644 50.105V46.6657C78.644 45.7465 78.1681 45.4761 77.4651 45.4761C76.8378 45.4761 76.2322 45.8654 75.9185 46.2872V50.105H75.1074V42.8912H75.9185V45.6383C76.2862 45.2057 77 44.7515 77.7896 44.7515C78.8819 44.7515 79.4551 45.2814 79.4551 46.417V50.105H78.644ZM80.7719 47.4877C80.7719 45.9736 81.8534 44.7515 83.3459 44.7515C84.925 44.7515 85.8551 45.9844 85.8551 47.5526V47.7581H81.6263C81.6912 48.7423 82.3834 49.5642 83.5082 49.5642C84.103 49.5642 84.7087 49.3263 85.1196 48.9045L85.509 49.4344C84.9899 49.9536 84.2869 50.2348 83.4325 50.2348C81.8859 50.2348 80.7719 49.1208 80.7719 47.4877ZM83.3351 45.422C82.2212 45.422 81.6696 46.3629 81.6263 47.1632H85.0547C85.0439 46.3846 84.5248 45.422 83.3351 45.422ZM18.904 64.105V56.8912H19.8016V63.3047H23.1543V64.105H18.904ZM27.5031 64.105V63.5101C27.0705 63.986 26.4756 64.2348 25.7726 64.2348C24.8858 64.2348 23.9449 63.6399 23.9449 62.5043C23.9449 61.3363 24.8858 60.7847 25.7726 60.7847C26.4864 60.7847 27.0813 61.0118 27.5031 61.4985V60.5576C27.5031 59.8546 26.9407 59.4544 26.1836 59.4544C25.5563 59.4544 25.048 59.6816 24.583 60.1791L24.2044 59.6167C24.7668 59.0327 25.4374 58.7515 26.2918 58.7515C27.3949 58.7515 28.3142 59.249 28.3142 60.5143V64.105H27.5031ZM27.5031 63.0018V62.0176C27.1894 61.585 26.6378 61.3687 26.0646 61.3687C25.3076 61.3687 24.7776 61.8446 24.7776 62.5151C24.7776 63.1749 25.3076 63.6507 26.0646 63.6507C26.6378 63.6507 27.1894 63.4344 27.5031 63.0018ZM29.486 63.4128L29.9078 62.8288C30.2538 63.2289 30.9136 63.575 31.6274 63.575C32.4277 63.575 32.8603 63.2181 32.8603 62.7098C32.8603 62.1366 32.2222 61.9528 31.5192 61.7797C30.6324 61.5742 29.6266 61.3363 29.6266 60.2548C29.6266 59.4436 30.3295 58.7515 31.5733 58.7515C32.4601 58.7515 33.0874 59.0867 33.5092 59.5085L33.1307 60.0709C32.817 59.6924 32.2438 59.4112 31.5733 59.4112C30.8595 59.4112 30.4161 59.7356 30.4161 60.2007C30.4161 60.709 31.0109 60.8712 31.6923 61.0335C32.6007 61.239 33.6498 61.4985 33.6498 62.6557C33.6498 63.5318 32.9468 64.2348 31.5949 64.2348C30.7405 64.2348 30.0159 63.9752 29.486 63.4128ZM36.287 64.2348C35.5192 64.2348 35.1298 63.7913 35.1298 63.0126V59.595H34.2646V58.8812H35.1298V57.4536H35.9409V58.8812H37.0008V59.595H35.9409V62.8396C35.9409 63.2289 36.114 63.5101 36.4709 63.5101C36.698 63.5101 36.9143 63.4128 37.0225 63.2938L37.2604 63.8995C37.0549 64.0942 36.7629 64.2348 36.287 64.2348ZM40.4375 63.0451L40.9674 62.4827C41.3892 63.0451 42.1246 63.4344 42.979 63.4344C44.0281 63.4344 44.6662 62.9153 44.6662 62.0825C44.6662 61.1849 43.9308 60.8063 42.8709 60.8063C42.568 60.8063 42.2328 60.8063 42.1246 60.8172V59.9952C42.2436 60.006 42.5789 60.006 42.8709 60.006C43.7793 60.006 44.5472 59.6491 44.5472 58.8163C44.5472 58.016 43.8118 57.5834 42.9358 57.5834C42.1463 57.5834 41.5622 57.8862 41.0323 58.4594L40.5348 57.8971C41.0539 57.2698 41.8867 56.7831 43.0007 56.7831C44.385 56.7831 45.4449 57.4861 45.4449 58.7082C45.4449 59.7465 44.5689 60.2656 43.8875 60.3846C44.5472 60.4386 45.553 61.001 45.553 62.1582C45.553 63.3587 44.5905 64.2348 43.0007 64.2348C41.7785 64.2348 40.8809 63.694 40.4375 63.0451ZM46.6956 60.5035C46.6956 58.7406 47.4743 56.7831 49.4534 56.7831C51.4218 56.7831 52.2113 58.7406 52.2113 60.5035C52.2113 62.2556 51.4218 64.2348 49.4534 64.2348C47.4743 64.2348 46.6956 62.2556 46.6956 60.5035ZM51.292 60.5035C51.292 59.0651 50.827 57.5834 49.4534 57.5834C48.0799 57.5834 47.6149 59.0651 47.6149 60.5035C47.6149 61.9419 48.0799 63.4344 49.4534 63.4344C50.827 63.4344 51.292 61.9419 51.292 60.5035ZM58.4962 64.105V61.0551L55.6518 56.8912H56.7009L58.9396 60.244L61.1784 56.8912H62.2275L59.3939 61.0551V64.105H58.4962ZM61.4598 61.4877C61.4598 59.9736 62.5413 58.7515 64.0338 58.7515C65.6129 58.7515 66.543 59.9844 66.543 61.5526V61.7581H62.3142C62.3791 62.7423 63.0713 63.5642 64.1961 63.5642C64.7909 63.5642 65.3966 63.3263 65.8075 62.9045L66.1969 63.4344C65.6778 63.9536 64.9748 64.2348 64.1204 64.2348C62.5738 64.2348 61.4598 63.1208 61.4598 61.4877ZM64.023 59.422C62.9091 59.422 62.3575 60.3629 62.3142 61.1632H65.7426C65.7318 60.3846 65.2127 59.422 64.023 59.422ZM71.123 64.105V63.5101C70.6904 63.986 70.0955 64.2348 69.3925 64.2348C68.5057 64.2348 67.5648 63.6399 67.5648 62.5043C67.5648 61.3363 68.5057 60.7847 69.3925 60.7847C70.1063 60.7847 70.7012 61.0118 71.123 61.4985V60.5576C71.123 59.8546 70.5606 59.4544 69.8035 59.4544C69.1762 59.4544 68.6679 59.6816 68.2029 60.1791L67.8243 59.6167C68.3867 59.0327 69.0573 58.7515 69.9117 58.7515C71.0148 58.7515 71.9341 59.249 71.9341 60.5143V64.105H71.123ZM71.123 63.0018V62.0176C70.8093 61.585 70.2577 61.3687 69.6845 61.3687C68.9275 61.3687 68.3975 61.8446 68.3975 62.5151C68.3975 63.1749 68.9275 63.6507 69.6845 63.6507C70.2577 63.6507 70.8093 63.4344 71.123 63.0018ZM73.5601 64.105V58.8812H74.3712V59.7248C74.793 59.1732 75.3987 58.7731 76.1125 58.7731V59.6059C76.0151 59.5842 75.9178 59.5734 75.788 59.5734C75.2905 59.5734 74.6092 59.9844 74.3712 60.4062V64.105H73.5601ZM76.6757 63.4128L77.0975 62.8288C77.4436 63.2289 78.1033 63.575 78.8171 63.575C79.6175 63.575 80.0501 63.2181 80.0501 62.7098C80.0501 62.1366 79.412 61.9528 78.709 61.7797C77.8221 61.5742 76.8163 61.3363 76.8163 60.2548C76.8163 59.4436 77.5193 58.7515 78.7631 58.7515C79.6499 58.7515 80.2772 59.0867 80.699 59.5085L80.3204 60.0709C80.0068 59.6924 79.4336 59.4112 78.7631 59.4112C78.0492 59.4112 77.6058 59.7356 77.6058 60.2007C77.6058 60.709 78.2007 60.8712 78.882 61.0335C79.7905 61.239 80.8396 61.4985 80.8396 62.6557C80.8396 63.5318 80.1366 64.2348 78.7847 64.2348C77.9303 64.2348 77.2057 63.9752 76.6757 63.4128Z" fill="white"/>
</svg>
