<svg width="22" height="18" viewBox="0 0 22 18" fill="none" xmlns="http://www.w3.org/2000/svg">
<g clip-path="url(#clip0_89_259)">
<path d="M0.498291 15.6384C2.08522 15.7859 3.60391 15.5571 5.05688 14.9134C5.71513 14.6219 6.32723 14.2537 6.89015 13.7946C6.52992 13.763 6.17671 13.7193 5.83153 13.623C5.48735 13.5272 5.15923 13.3937 4.84817 13.2181C4.53409 13.0405 4.2451 12.8283 3.98321 12.5794C3.72382 12.3336 3.49755 12.0601 3.30489 11.7591C3.11073 11.4556 2.95519 11.134 2.83679 10.7727C2.88545 10.7758 2.92258 10.7753 2.9582 10.7813C3.53819 10.8766 4.11315 10.848 4.6831 10.7105C4.7127 10.7035 4.7408 10.691 4.7699 10.6724C3.45039 10.3528 2.44896 9.61779 1.79974 8.42421C1.45205 7.78453 1.2915 7.09567 1.29 6.34661C1.60708 6.50967 1.91915 6.64212 2.24777 6.73092C2.57289 6.81872 2.90302 6.8709 3.24519 6.8714C1.97534 5.93119 1.30806 4.68844 1.32963 3.10251C1.33967 2.37503 1.53935 1.6952 1.90711 1.04949C3.63803 3.11907 5.78537 4.52237 8.38376 5.21925C9.21611 5.44252 10.0635 5.57346 10.9405 5.6126C10.928 5.53584 10.9189 5.47362 10.9074 5.41241C10.4729 3.08646 11.953 0.86486 14.2032 0.358629C15.7785 0.00441779 17.1578 0.417832 18.3192 1.54318C18.3719 1.59436 18.4161 1.61844 18.4953 1.60138C19.3894 1.41273 20.2333 1.09314 21.029 0.645611C21.0626 0.626545 21.0967 0.608985 21.1549 0.577879C21.1369 0.634573 21.1273 0.669693 21.1148 0.70381C20.7746 1.62596 20.1886 2.35195 19.3668 2.88878C19.3357 2.90935 19.3051 2.93093 19.2795 2.96354C20.1199 2.87724 20.9226 2.65599 21.7068 2.32285C21.7023 2.37201 21.6727 2.39861 21.6521 2.42821C21.1028 3.21289 20.445 3.89272 19.6744 4.46166C19.5951 4.52036 19.571 4.57906 19.5765 4.67489C19.6021 5.10887 19.5831 5.54236 19.5525 5.97534C19.4993 6.72591 19.3754 7.46443 19.1847 8.19142C18.6433 10.2505 17.677 12.0837 16.2396 13.6586C14.5965 15.4598 12.5841 16.6423 10.2125 17.2108C9.65862 17.3437 9.0977 17.4305 8.53176 17.4927C7.85395 17.567 7.17412 17.5735 6.4963 17.5429C4.96758 17.4737 3.50257 17.1189 2.10278 16.4983C1.582 16.2675 1.07928 16.0016 0.595122 15.7016C0.562511 15.6815 0.530903 15.66 0.498793 15.6394L0.498291 15.6384ZM12.2721 15.7889C12.2806 15.7889 12.2891 15.7894 12.2976 15.7899C12.2966 15.7728 12.2951 15.7558 12.2941 15.7382C12.2881 15.7382 12.2821 15.7382 12.2761 15.7382C12.2746 15.7553 12.2731 15.7718 12.2716 15.7889H12.2721Z" fill="white"/>
<path d="M12.272 15.5371C12.2735 15.5198 12.275 15.5031 12.2765 15.4858C12.2826 15.4858 12.2887 15.4858 12.2948 15.4858C12.2958 15.5031 12.2968 15.5203 12.2983 15.5381L12.2725 15.5371H12.272Z" fill="white"/>
</g>
<defs>
<clipPath id="clip0_89_259">
<rect width="21.2085" height="17.3242" fill="white" transform="translate(0.498413 0.235352)"/>
</clipPath>
</defs>
</svg>
