<svg width="62" height="56" viewBox="0 0 62 56" fill="none" xmlns="http://www.w3.org/2000/svg">
<g clip-path="url(#clip0_89_295)">
<mask id="mask0_89_295" style="mask-type:luminance" maskUnits="userSpaceOnUse" x="0" y="0" width="62" height="56">
<path d="M61.2029 0.788086H0.406677V55.277H61.2029V0.788086Z" fill="white"/>
</mask>
<g mask="url(#mask0_89_295)">
<path d="M27.1727 1.4568C27.155 1.44575 27.1356 1.43913 27.1139 1.43824C25.9997 1.13518 24.8073 1.14932 23.6764 1.34945C22.5114 1.55576 21.353 1.98032 20.3811 2.66376C20.1903 2.79761 20.006 2.94208 19.8324 3.09759C19.6124 3.29463 19.3761 3.38298 19.1061 3.50138C18.5035 3.76513 17.9106 4.05008 17.3292 4.35756C16.2084 4.94999 15.1305 5.62371 14.1095 6.37563C10.1251 9.31133 7.13991 13.4106 5.4598 18.0578C3.65069 23.061 3.34895 28.5679 4.38626 33.7729C5.35466 38.6344 7.51146 43.2828 10.7665 47.0366C13.943 50.6999 18.136 53.3864 22.8065 54.699C23.4308 54.8743 24.0616 55.0259 24.6969 55.1536C24.9823 55.211 25.8509 55.5043 25.7943 54.9088C25.7819 54.7807 25.6993 54.676 25.5836 54.6243C25.4519 54.5651 25.2779 54.5603 25.1356 54.5333C24.943 54.4966 24.7508 54.4578 24.5591 54.4167C23.9308 54.2824 23.3079 54.1242 22.6916 53.9427C20.3298 53.2455 18.0803 52.1892 16.041 50.8086C11.9668 48.0501 8.84605 44.0515 6.90002 39.5524C4.79757 34.6914 4.0377 29.2398 4.7313 23.9896C5.4037 18.9016 7.4951 14.0009 10.9441 10.1745C12.6242 8.31112 14.5968 6.72553 16.7647 5.46423C17.3323 5.13378 17.9137 4.82762 18.5053 4.54311C18.8083 4.39732 19.1145 4.25683 19.4224 4.12121C19.5616 4.0598 19.7003 3.98911 19.8439 3.93831C19.9985 3.88397 20.1584 3.89413 20.3206 3.88618C21.5739 3.82256 22.8175 3.53143 24.0073 3.1453C25.1113 2.78702 26.1994 2.33153 27.1784 1.70287C27.1815 1.70066 27.1846 1.69846 27.1877 1.6958C27.2243 1.66841 27.2412 1.63175 27.2429 1.59463C27.2429 1.59198 27.2429 1.58933 27.2433 1.58624C27.2433 1.58536 27.2433 1.58403 27.2433 1.58315C27.246 1.53323 27.2248 1.48286 27.1727 1.4568Z" fill="#F2F2F2"/>
<path d="M18.991 5.30927C17.865 5.27305 16.5758 5.69761 15.5469 6.41639C15.9131 6.99424 16.6819 7.29157 17.739 7.26683C18.7997 7.24076 19.9608 6.91605 21.0772 6.43097C20.8337 5.80408 20.1212 5.34373 18.991 5.30927Z" fill="#F2F2F2"/>
<path d="M17.8325 3.12632C18.557 2.20741 18.7978 1.3848 18.4669 0.786621C17.0373 1.35299 15.8193 2.26925 15.1734 3.25708C14.5245 4.24712 14.5421 5.08431 14.9711 5.6118C16.0623 4.90539 17.1049 4.047 17.8325 3.12632Z" fill="#F2F2F2"/>
<path d="M18.7992 52.0429C19.2436 51.2923 19.146 50.2841 18.5973 49.1903C18.0442 48.0934 17.1717 47.0993 16.1887 46.2847C15.606 46.9182 15.3877 47.9131 15.8609 49.102C16.3292 50.2864 17.4332 51.3894 18.7992 52.0429Z" fill="#F2F2F2"/>
<path d="M11.0542 52.4545C12.3345 53.6031 13.9793 54.3573 15.4345 54.4488C16.8955 54.5433 17.8365 54.0087 18.1846 53.2214C16.7824 52.4859 15.3135 51.9054 13.9479 51.7026C12.5876 51.5025 11.5707 51.7507 11.0542 52.4545Z" fill="#F2F2F2"/>
<path d="M14.0366 48.8514C14.6277 48.213 14.7726 47.2066 14.5027 46.02C14.2296 44.8294 13.6195 43.6719 12.8504 42.6655C12.1515 43.1599 11.7282 44.085 11.9182 45.3476C12.1047 46.605 12.9065 47.9198 14.0366 48.8514Z" fill="#F2F2F2"/>
<path d="M13.1867 49.8715C12.0411 48.8519 10.7754 47.97 9.5137 47.4801C8.25636 46.9937 7.22175 47.0193 6.57275 47.5968C7.55574 48.9923 8.9553 50.0809 10.3111 50.4821C11.6714 50.8876 12.676 50.5664 13.1867 49.8715Z" fill="#F2F2F2"/>
<path d="M11.2086 42.0672C11.1979 40.8713 10.852 39.6347 10.3135 38.5117C9.54964 38.8396 8.96649 39.637 8.89444 40.8828C8.82022 42.1229 9.30974 43.5446 10.1716 44.6729C10.8631 44.1887 11.2169 43.2583 11.2086 42.0672Z" fill="#F2F2F2"/>
<path d="M9.16063 45.4635C8.304 44.2495 7.28656 43.1442 6.18607 42.4166C5.08912 41.693 4.09599 41.5065 3.36395 41.9235C4.02619 43.4535 5.12976 44.7784 6.32391 45.4433C7.52206 46.1126 8.53105 46.0189 9.16063 45.4635Z" fill="#F2F2F2"/>
<path d="M8.85883 37.5429C9.08148 36.3898 8.98253 35.1263 8.67105 33.9326C7.87099 34.0908 7.15976 34.7384 6.85401 35.9215C6.54742 37.0989 6.74533 38.5669 7.34882 39.8318C8.10913 39.511 8.63482 38.6911 8.85883 37.5429Z" fill="#F2F2F2"/>
<path d="M6.22411 40.3774C5.6436 39.0326 4.87578 37.7599 3.952 36.8343C3.03044 35.9132 2.10446 35.5315 1.31897 35.7815C1.67284 37.3848 2.48219 38.8829 3.50139 39.7682C4.52279 40.6588 5.50886 40.7795 6.22411 40.3774Z" fill="#F2F2F2"/>
<path d="M7.50729 32.7701C7.93935 31.6882 8.07366 30.4326 7.98525 29.2018C7.16884 29.1925 6.34979 29.6807 5.83246 30.775C5.31469 31.8635 5.24002 33.3391 5.59831 34.6994C6.40545 34.5417 7.07479 33.8468 7.50729 32.7701Z" fill="#F2F2F2"/>
<path d="M4.38983 35.0033C4.06953 33.5698 3.54735 32.1684 2.80735 31.0741C2.06869 29.9851 1.22709 29.4223 0.40802 29.5063C0.462802 31.1461 0.984991 32.7763 1.82439 33.8503C2.6651 34.93 3.6114 35.2503 4.38983 35.0033Z" fill="#F2F2F2"/>
<path d="M4.81159 29.3009C5.62801 29.3124 6.4082 28.7756 7.02626 27.8188C7.64478 26.857 8.00479 25.6651 8.1462 24.4519C7.35141 24.2779 6.4621 24.5862 5.75657 25.5431C5.05192 26.4943 4.70998 27.9098 4.81159 29.3009Z" fill="#F2F2F2"/>
<path d="M3.57941 29.3482C3.52817 27.8938 3.2737 26.4297 2.75196 25.2197C2.23065 24.0149 1.51363 23.2992 0.698978 23.2153C0.450253 24.815 0.663193 26.4991 1.28611 27.7096C1.90947 28.9258 2.77493 29.4285 3.57941 29.3482Z" fill="#F2F2F2"/>
<path d="M7.49342 22.908C8.28333 22.0928 8.86519 20.9999 9.24291 19.841C8.49457 19.5089 7.55662 19.6299 6.67703 20.4225C5.79964 21.2097 5.19528 22.5254 5.03668 23.9068C5.83807 24.0844 6.70531 23.7181 7.49342 22.908Z" fill="#F2F2F2"/>
<path d="M3.81552 23.7026C4.03508 22.2695 4.06203 20.7851 3.78282 19.4946C3.50229 18.209 2.93813 17.363 2.15175 17.1147C1.59157 18.63 1.48024 20.3212 1.86547 21.6324C2.25027 22.9494 3.00926 23.6179 3.81552 23.7026Z" fill="#F2F2F2"/>
<path d="M8.84112 18.1611C9.76177 17.5373 10.5415 16.6029 11.1473 15.5643C10.4929 15.1004 9.55993 15.0346 8.55175 15.6208C7.5462 16.2022 6.70463 17.3393 6.28494 18.6268C7.02051 18.9567 7.92352 18.7805 8.84112 18.1611Z" fill="#F2F2F2"/>
<path d="M5.15835 18.1893C5.64608 16.8661 5.96549 15.4542 5.95533 14.1676C5.9434 12.8851 5.57231 11.9671 4.86368 11.5762C4.01413 12.9116 3.57234 14.5003 3.68677 15.8265C3.79942 17.1576 4.40069 17.9463 5.15835 18.1893Z" fill="#F2F2F2"/>
<path d="M13.7795 11.7927C13.2587 11.2435 12.3861 11.0173 11.3122 11.3778C10.2413 11.7348 9.2172 12.6316 8.5643 13.7431C9.18496 14.1893 10.0637 14.199 11.0542 13.7935C12.0477 13.3849 12.9804 12.655 13.7795 11.7927Z" fill="#F2F2F2"/>
<path d="M7.61098 13.1319C8.33282 12.0036 8.92178 10.756 9.17797 9.56361C9.43158 8.37475 9.27253 7.45762 8.68405 6.9668C7.60658 8.04522 6.87099 9.42578 6.71106 10.6703C6.54849 11.9188 6.95228 12.7621 7.61098 13.1319Z" fill="#F2F2F2"/>
<path d="M14.884 7.92705C13.7548 8.07812 12.5615 8.74657 11.6925 9.68269C12.1983 10.2195 13.0452 10.3891 14.0972 10.1801C15.1531 9.96896 16.2292 9.43705 17.2162 8.7532C16.8283 8.13909 16.0171 7.77327 14.884 7.92705Z" fill="#F2F2F2"/>
<path d="M10.9075 8.93434C11.845 7.99639 12.6905 6.91756 13.2048 5.83032C13.7159 4.74619 13.7663 3.84627 13.298 3.27637C11.9996 4.11002 10.9844 5.28605 10.562 6.43601C10.137 7.58954 10.35 8.46293 10.9075 8.93434Z" fill="#F2F2F2"/>
<path d="M34.4408 1.4568C34.4585 1.44575 34.4779 1.43913 34.4995 1.43824C35.6137 1.13518 36.8061 1.14932 37.937 1.34945C39.102 1.55576 40.2604 1.98032 41.2323 2.66376C41.4232 2.79761 41.6074 2.94208 41.781 3.09759C42.0011 3.29463 42.2374 3.38298 42.5073 3.50138C43.1099 3.76513 43.7028 4.05008 44.2842 4.35756C45.405 4.94999 46.483 5.62371 47.5039 6.37563C51.4884 9.31133 54.4736 13.4106 56.1536 18.0578C57.9627 23.061 58.2645 28.5679 57.2272 33.7729C56.2587 38.6344 54.102 43.2828 50.8469 47.0366C47.6705 50.6999 43.4775 53.3864 38.8069 54.699C38.1827 54.8743 37.5518 55.0259 36.9166 55.1536C36.6311 55.211 35.7626 55.5043 35.8192 54.9088C35.8315 54.7807 35.9141 54.676 36.0299 54.6243C36.1615 54.5651 36.3356 54.5603 36.4779 54.5333C36.6705 54.4966 36.8626 54.4578 37.0544 54.4167C37.6826 54.2824 38.3055 54.1242 38.9218 53.9427C41.2836 53.2455 43.5332 52.1892 45.5724 50.8086C49.6466 48.0501 52.7673 44.0515 54.7134 39.5524C56.8159 34.6914 57.5758 29.2398 56.8822 23.9896C56.2097 18.9016 54.1183 14.0009 50.6693 10.1745C48.9892 8.31112 47.0166 6.72553 44.8488 5.46423C44.2811 5.13378 43.6997 4.82762 43.1081 4.54311C42.8051 4.39732 42.499 4.25683 42.191 4.12121C42.0518 4.0598 41.9131 3.98911 41.7695 3.93831C41.6149 3.88397 41.455 3.89413 41.2929 3.88618C40.0395 3.82256 38.7959 3.53143 37.6062 3.1453C36.5021 2.78702 35.414 2.33153 34.435 1.70287C34.4319 1.70066 34.4289 1.69846 34.4258 1.6958C34.3891 1.66841 34.3723 1.63175 34.3705 1.59463C34.3705 1.59198 34.3705 1.58933 34.3701 1.58624C34.3701 1.58536 34.3701 1.58403 34.3701 1.58315C34.3674 1.53323 34.3886 1.48286 34.4408 1.4568Z" fill="#F2F2F2"/>
<path d="M42.6233 5.30927C43.7495 5.27305 45.0386 5.69761 46.0675 6.41639C45.7013 6.99424 44.9326 7.29157 43.8754 7.26683C42.8146 7.24076 41.6536 6.91605 40.5372 6.43097C40.7807 5.80408 41.4933 5.34373 42.6233 5.30927Z" fill="#F2F2F2"/>
<path d="M43.7823 3.12632C43.0578 2.20741 42.8171 1.3848 43.1479 0.786621C44.5776 1.35299 45.7956 2.26925 46.4414 3.25708C47.0904 4.24712 47.0728 5.08431 46.6438 5.6118C45.5526 4.90539 44.51 4.047 43.7823 3.12632Z" fill="#F2F2F2"/>
<path d="M42.8146 52.0429C42.3702 51.2923 42.4679 50.2841 43.0165 49.1903C43.5697 48.0934 44.4422 47.0993 45.4251 46.2847C46.0079 46.9182 46.2261 47.9131 45.7529 49.102C45.2842 50.2864 44.1807 51.3894 42.8146 52.0429Z" fill="#F2F2F2"/>
<path d="M50.559 52.4545C49.2786 53.6031 47.6339 54.3573 46.1787 54.4488C44.7177 54.5433 43.7767 54.0087 43.4286 53.2214C44.8307 52.4859 46.2997 51.9054 47.6653 51.7026C49.0255 51.5025 50.0425 51.7507 50.559 52.4545Z" fill="#F2F2F2"/>
<path d="M47.5773 48.8514C46.9862 48.213 46.8413 47.2066 47.1113 46.02C47.3843 44.8294 47.9944 43.6719 48.7635 42.6655C49.4624 43.1599 49.8856 44.085 49.6957 45.3476C49.5093 46.605 48.7074 47.9198 47.5773 48.8514Z" fill="#F2F2F2"/>
<path d="M48.4268 49.8715C49.5724 48.8519 50.8381 47.97 52.0999 47.4801C53.3572 46.9937 54.3918 47.0193 55.0408 47.5968C54.0579 48.9923 52.6583 50.0809 51.3024 50.4821C49.9422 50.8876 48.9375 50.5664 48.4268 49.8715Z" fill="#F2F2F2"/>
<path d="M50.4054 42.0672C50.416 40.8713 50.7619 39.6347 51.3004 38.5117C52.0643 38.8396 52.6474 39.637 52.7194 40.8828C52.7936 42.1229 52.3042 43.5446 51.4422 44.6729C50.7508 44.1887 50.397 43.2583 50.4054 42.0672Z" fill="#F2F2F2"/>
<path d="M52.4548 45.4635C53.3115 44.2495 54.3289 43.1442 55.4294 42.4166C56.5264 41.693 57.5195 41.5065 58.2515 41.9235C57.5893 43.4535 56.4857 44.7784 55.2915 45.4433C54.0934 46.1126 53.0843 46.0189 52.4548 45.4635Z" fill="#F2F2F2"/>
<path d="M52.7543 37.5429C52.5316 36.3898 52.6306 35.1263 52.9421 33.9326C53.7421 34.0908 54.4534 34.7384 54.7592 35.9215C55.0658 37.0989 54.8678 38.5669 54.2644 39.8318C53.5041 39.511 52.9783 38.6911 52.7543 37.5429Z" fill="#F2F2F2"/>
<path d="M55.3897 40.3774C55.9702 39.0326 56.738 37.7599 57.6617 36.8343C58.5833 35.9132 59.5093 35.5315 60.2948 35.7815C59.9409 37.3848 59.1316 38.8829 58.1124 39.7682C57.091 40.6588 56.1049 40.7795 55.3897 40.3774Z" fill="#F2F2F2"/>
<path d="M54.1058 32.7701C53.6738 31.6882 53.5395 30.4326 53.6278 29.2018C54.4442 29.1925 55.2633 29.6807 55.7806 30.775C56.2984 31.8635 56.3731 33.3391 56.0148 34.6994C55.2076 34.5417 54.5383 33.8468 54.1058 32.7701Z" fill="#F2F2F2"/>
<path d="M57.2241 35.0039C57.5449 33.5703 58.0666 32.169 58.8066 31.0747C59.5452 29.9857 60.3868 29.4228 61.2059 29.5067C61.1511 31.1467 60.629 32.7769 59.7896 33.8508C58.9488 34.9306 58.0025 35.2509 57.2241 35.0039Z" fill="#F2F2F2"/>
<path d="M56.8027 29.3009C55.9863 29.3124 55.2061 28.7756 54.588 27.8188C53.9695 26.857 53.6095 25.6651 53.4681 24.4519C54.2629 24.2779 55.1522 24.5862 55.8577 25.5431C56.5624 26.4943 56.9043 27.9098 56.8027 29.3009Z" fill="#F2F2F2"/>
<path d="M58.0347 29.3482C58.086 27.8938 58.3405 26.4297 58.8622 25.2197C59.3835 24.0149 60.1005 23.2992 60.9152 23.2153C61.1639 24.815 60.9509 26.4991 60.328 27.7096C59.7047 28.9258 58.8392 29.4285 58.0347 29.3482Z" fill="#F2F2F2"/>
<path d="M54.1205 22.908C53.3305 22.0928 52.7488 20.9999 52.371 19.841C53.1194 19.5089 54.0573 19.6299 54.9365 20.4225C55.8139 21.2097 56.4182 22.5254 56.5768 23.9068C55.7754 24.0844 54.9086 23.7181 54.1205 22.908Z" fill="#F2F2F2"/>
<path d="M57.7988 23.7026C57.5792 22.2695 57.5523 20.7851 57.8315 19.4946C58.112 18.209 58.6762 17.363 59.4626 17.1147C60.0228 18.63 60.1341 20.3212 59.7488 21.6324C59.3641 22.9494 58.605 23.6179 57.7988 23.7026Z" fill="#F2F2F2"/>
<path d="M52.7721 18.1611C51.8514 17.5373 51.0717 16.6029 50.4659 15.5643C51.1203 15.1004 52.0533 15.0346 53.0615 15.6208C54.0669 16.2022 54.9086 17.3393 55.3283 18.6268C54.5927 18.9567 53.6897 18.7805 52.7721 18.1611Z" fill="#F2F2F2"/>
<path d="M56.4556 18.1893C55.9678 16.8661 55.6484 15.4542 55.6586 14.1676C55.6705 12.8851 56.0416 11.9671 56.7502 11.5762C57.5998 12.9116 58.0416 14.5003 57.9271 15.8265C57.8145 17.1576 57.2132 17.9463 56.4556 18.1893Z" fill="#F2F2F2"/>
<path d="M47.8345 11.7927C48.3554 11.2435 49.2279 11.0173 50.3019 11.3778C51.3728 11.7348 52.3968 12.6316 53.0498 13.7431C52.4291 14.1893 51.5504 14.199 50.5599 13.7935C49.5663 13.3849 48.6337 12.655 47.8345 11.7927Z" fill="#F2F2F2"/>
<path d="M54.0036 13.1319C53.2818 12.0036 52.6929 10.756 52.4366 9.56361C52.183 8.37475 52.342 7.45762 52.9305 6.9668C54.008 8.04522 54.7436 9.42578 54.9036 10.6703C55.0661 11.9188 54.6623 12.7621 54.0036 13.1319Z" fill="#F2F2F2"/>
<path d="M46.7299 7.92705C47.8592 8.07812 49.0524 8.74657 49.9214 9.68269C49.4156 10.2195 48.5687 10.3891 47.5168 10.1801C46.4609 9.96896 45.3847 9.43705 44.3983 8.7532C44.7861 8.13909 45.5968 7.77327 46.7299 7.92705Z" fill="#F2F2F2"/>
<path d="M50.707 8.93434C49.7695 7.99639 48.9239 6.91756 48.4097 5.83032C47.8985 4.74619 47.8482 3.84627 48.3165 3.27637C49.6149 4.11002 50.6301 5.28605 51.0524 6.43601C51.4775 7.58954 51.2645 8.46293 50.707 8.93434Z" fill="#F2F2F2"/>
<path d="M11.1425 25.3967V22.5518H10.6436V25.3967H11.1425ZM13.5729 25.3967V23.9465C13.5729 23.5242 13.3511 23.2854 12.9074 23.2854C12.5833 23.2854 12.3189 23.456 12.1824 23.6181V23.3365H11.7345V25.3967H12.1824V23.9593C12.2848 23.8186 12.4809 23.682 12.7113 23.682C12.9629 23.682 13.125 23.7887 13.125 24.1085V25.3967H13.5729ZM15.1782 25.3967L16.0185 23.3365H15.5365L14.9351 24.8806L14.3337 23.3365H13.856L14.6963 25.3967H15.1782ZM16.1717 24.3645C16.1717 25.0171 16.6324 25.4479 17.2508 25.4479C17.5793 25.4479 17.8821 25.3455 18.0868 25.1493L17.8821 24.855C17.737 25 17.4982 25.081 17.2977 25.081C16.9096 25.081 16.6751 24.8251 16.6409 24.5138H18.2318V24.4071C18.2318 23.7588 17.8352 23.2854 17.2167 23.2854C16.6068 23.2854 16.1717 23.7673 16.1717 24.3645ZM17.2167 23.6522C17.6219 23.6522 17.7883 23.955 17.7968 24.1982H16.6367C16.658 23.9465 16.8328 23.6522 17.2167 23.6522ZM18.4948 25.1279C18.708 25.3369 19.0279 25.4479 19.3776 25.4479C19.9321 25.4479 20.2349 25.1706 20.2349 24.8081C20.2349 24.3218 19.7956 24.2195 19.4374 24.1427C19.1943 24.0872 18.9895 24.0318 18.9895 23.874C18.9895 23.729 19.1388 23.6437 19.3734 23.6437C19.6293 23.6437 19.8597 23.7503 19.9833 23.891L20.171 23.5754C19.9833 23.4091 19.7189 23.2854 19.3691 23.2854C18.8488 23.2854 18.5587 23.5754 18.5587 23.9124C18.5587 24.373 18.981 24.4669 19.335 24.5436C19.5866 24.5991 19.8042 24.663 19.8042 24.8422C19.8042 24.9957 19.6677 25.0939 19.399 25.0939C19.1302 25.0939 18.8445 24.9531 18.6995 24.8038L18.4948 25.1279ZM21.3042 25.4479C21.5132 25.4479 21.6454 25.3924 21.7264 25.3157L21.6198 24.9787C21.5857 25.0171 21.5047 25.0512 21.4193 25.0512C21.2914 25.0512 21.2231 24.9488 21.2231 24.8081V23.729H21.6411V23.3365H21.2231V22.7735H20.7753V23.3365H20.4341V23.729H20.7753V24.9189C20.7753 25.2602 20.9587 25.4479 21.3042 25.4479ZM25.0207 25.3967V23.9081C25.0207 23.4901 24.8074 23.2854 24.4278 23.2854C24.1206 23.2854 23.8477 23.4773 23.7283 23.665C23.6601 23.4389 23.4723 23.2854 23.1653 23.2854C22.8539 23.2854 22.5809 23.4901 22.4956 23.6181V23.3365H22.0478V25.3967H22.4956V23.9593C22.5895 23.8228 22.7729 23.682 22.969 23.682C23.2122 23.682 23.3102 23.8313 23.3102 24.0531V25.3967H23.7581V23.955C23.8477 23.8228 24.0353 23.682 24.2358 23.682C24.4747 23.682 24.5728 23.8313 24.5728 24.0531V25.3967H25.0207ZM25.4728 24.3645C25.4728 25.0171 25.9334 25.4479 26.5519 25.4479C26.8803 25.4479 27.1832 25.3455 27.3879 25.1493L27.1832 24.855C27.0381 25 26.7993 25.081 26.5988 25.081C26.2107 25.081 25.9761 24.8251 25.942 24.5138H27.5329V24.4071C27.5329 23.7588 27.1363 23.2854 26.5178 23.2854C25.9079 23.2854 25.4728 23.7673 25.4728 24.3645ZM26.5178 23.6522C26.923 23.6522 27.0894 23.955 27.0979 24.1982H25.9377C25.959 23.9465 26.1339 23.6522 26.5178 23.6522ZM29.8133 25.3967V23.9465C29.8133 23.5242 29.5915 23.2854 29.1479 23.2854C28.8238 23.2854 28.5593 23.456 28.4228 23.6181V23.3365H27.975V25.3967H28.4228V23.9593C28.5252 23.8186 28.7214 23.682 28.9517 23.682C29.2033 23.682 29.3654 23.7887 29.3654 24.1085V25.3967H29.8133ZM31.0134 25.4479C31.2224 25.4479 31.3547 25.3924 31.4357 25.3157L31.329 24.9787C31.295 25.0171 31.2139 25.0512 31.1286 25.0512C31.0007 25.0512 30.9324 24.9488 30.9324 24.8081V23.729H31.3504V23.3365H30.9324V22.7735H30.4846V23.3365H30.1434V23.729H30.4846V24.9189C30.4846 25.2602 30.668 25.4479 31.0134 25.4479ZM35.4244 25.3967L34.3069 22.5518H33.6842L32.5667 25.3967H33.1127L33.3217 24.8507H34.6695L34.8785 25.3967H35.4244ZM34.5287 24.4114H33.4624L33.9956 22.974L34.5287 24.4114ZM35.5433 25.1279C35.7565 25.3369 36.0764 25.4479 36.4261 25.4479C36.9806 25.4479 37.2834 25.1706 37.2834 24.8081C37.2834 24.3218 36.8441 24.2195 36.4859 24.1427C36.2427 24.0872 36.038 24.0318 36.038 23.874C36.038 23.729 36.1873 23.6437 36.4219 23.6437C36.6778 23.6437 36.9081 23.7503 37.0318 23.891L37.2195 23.5754C37.0318 23.4091 36.7673 23.2854 36.4176 23.2854C35.8972 23.2854 35.6072 23.5754 35.6072 23.9124C35.6072 24.373 36.0295 24.4669 36.3835 24.5436C36.6351 24.5991 36.8526 24.663 36.8526 24.8422C36.8526 24.9957 36.7162 25.0939 36.4475 25.0939C36.1788 25.0939 35.893 24.9531 35.7479 24.8038L35.5433 25.1279ZM37.5551 25.1279C37.7683 25.3369 38.0882 25.4479 38.4379 25.4479C38.9924 25.4479 39.2952 25.1706 39.2952 24.8081C39.2952 24.3218 38.8559 24.2195 38.4977 24.1427C38.2546 24.0872 38.0498 24.0318 38.0498 23.874C38.0498 23.729 38.1991 23.6437 38.4337 23.6437C38.6896 23.6437 38.92 23.7503 39.0437 23.891L39.2313 23.5754C39.0437 23.4091 38.7792 23.2854 38.4294 23.2854C37.9091 23.2854 37.619 23.5754 37.619 23.9124C37.619 24.373 38.0413 24.4669 38.3953 24.5436C38.6469 24.5991 38.8645 24.663 38.8645 24.8422C38.8645 24.9957 38.728 25.0939 38.4593 25.0939C38.1906 25.0939 37.9048 24.9531 37.7598 24.8038L37.5551 25.1279ZM41.5844 25.3967V23.3365H41.1365V24.7825C41.0299 24.9233 40.8336 25.0512 40.6076 25.0512C40.3559 25.0512 40.1939 24.9531 40.1939 24.6332V23.3365H39.746V24.7953C39.746 25.2175 39.9636 25.4479 40.4071 25.4479C40.7313 25.4479 40.9872 25.29 41.1365 25.1237V25.3967H41.5844ZM42.6139 25.3967V23.9934C42.7035 23.8484 42.9551 23.7204 43.1428 23.7204C43.1983 23.7204 43.2452 23.7247 43.2836 23.7333V23.2896C43.0149 23.2896 42.7675 23.4432 42.6139 23.6394V23.3365H42.1661V25.3967H42.6139ZM45.3508 25.3967V24.0318C45.3508 23.4773 44.9499 23.2854 44.4935 23.2854C44.1651 23.2854 43.8665 23.392 43.6277 23.6181L43.8111 23.9294C43.9902 23.7545 44.1907 23.6692 44.421 23.6692C44.7068 23.6692 44.903 23.8143 44.903 24.0531V24.3602C44.7537 24.1853 44.5149 24.0958 44.2376 24.0958C43.9006 24.0958 43.521 24.292 43.521 24.7654C43.521 25.2218 43.9006 25.4479 44.2376 25.4479C44.5105 25.4479 44.7494 25.3498 44.903 25.1748V25.3967H45.3508ZM44.903 24.9275C44.8006 25.0683 44.6087 25.1408 44.4125 25.1408C44.1608 25.1408 43.9732 24.9957 43.9732 24.7739C43.9732 24.5479 44.1608 24.4028 44.4125 24.4028C44.6087 24.4028 44.8006 24.4754 44.903 24.6161V24.9275ZM47.7698 25.3967V23.9465C47.7698 23.5242 47.548 23.2854 47.1044 23.2854C46.7802 23.2854 46.5158 23.456 46.3793 23.6181V23.3365H45.9315V25.3967H46.3793V23.9593C46.4817 23.8186 46.6779 23.682 46.9082 23.682C47.1599 23.682 47.322 23.7887 47.322 24.1085V25.3967H47.7698ZM48.2235 24.3645C48.2235 24.9915 48.6628 25.4479 49.2898 25.4479C49.6908 25.4479 49.9339 25.2773 50.0789 25.081L49.7846 24.8081C49.6695 24.9659 49.5116 25.0512 49.3112 25.0512C48.9359 25.0512 48.6885 24.7654 48.6885 24.3645C48.6885 23.9635 48.9359 23.682 49.3112 23.682C49.5116 23.682 49.6695 23.7631 49.7846 23.9252L50.0789 23.6522C49.9339 23.456 49.6908 23.2854 49.2898 23.2854C48.6628 23.2854 48.2235 23.7418 48.2235 24.3645ZM50.3437 24.3645C50.3437 25.0171 50.8043 25.4479 51.4227 25.4479C51.7512 25.4479 52.054 25.3455 52.2588 25.1493L52.054 24.855C51.909 25 51.6701 25.081 51.4697 25.081C51.0815 25.081 50.847 24.8251 50.8128 24.5138H52.4037V24.4071C52.4037 23.7588 52.0071 23.2854 51.3887 23.2854C50.7787 23.2854 50.3437 23.7673 50.3437 24.3645ZM51.3887 23.6522C51.7938 23.6522 51.9602 23.955 51.9687 24.1982H50.8086C50.8299 23.9465 51.0048 23.6522 51.3887 23.6522Z" fill="#F2F2F2"/>
<path d="M22.6559 34.6754C24.2349 34.6754 24.9971 33.7964 24.9971 32.5053V29.3942H23.8692V32.4742C23.8692 33.1975 23.457 33.6953 22.6559 33.6953C21.8548 33.6953 21.4348 33.1975 21.4348 32.4742V29.3942H20.3148V32.5131C20.3148 33.7887 21.077 34.6754 22.6559 34.6754ZM27.1235 34.582V32.7386H28.4458C29.5657 32.7386 30.188 31.9687 30.188 31.0664C30.188 30.1564 29.5735 29.3942 28.4458 29.3942H26.019V34.582H27.1235ZM28.298 31.7664H27.1235V30.3664H28.298C28.7335 30.3664 29.0602 30.6309 29.0602 31.0664C29.0602 31.4942 28.7335 31.7664 28.298 31.7664ZM35.1727 34.582V30.3664H36.6816V29.3942H32.5438V30.3664H34.0605V34.582H35.1727ZM39.6575 34.6754C41.2286 34.6754 42.372 33.5553 42.372 31.992C42.372 30.4286 41.2286 29.3086 39.6575 29.3086C38.0942 29.3086 36.9508 30.4286 36.9508 31.992C36.9508 33.5553 38.0942 34.6754 39.6575 34.6754ZM39.6575 33.6953C38.7009 33.6953 38.0864 32.9564 38.0864 31.992C38.0864 31.0198 38.7009 30.2887 39.6575 30.2887C40.6142 30.2887 41.2364 31.0198 41.2364 31.992C41.2364 32.9564 40.6142 33.6953 39.6575 33.6953ZM19.018 45.6719H19.9212V44.8068C21.309 44.6642 21.9935 43.8562 21.9935 42.801C21.9935 41.5081 20.9003 41.1279 19.9212 40.8807V39.5403C20.3489 39.6449 20.7577 39.8446 21.0999 40.1583L21.8509 39.1696C21.3375 38.7038 20.6911 38.4091 19.9212 38.3235V37.4205H19.018V38.3045C17.7347 38.4376 16.9742 39.2551 16.9742 40.2153C16.9742 41.5081 18.0389 41.8694 19.018 42.1166V43.6185C18.3716 43.5044 17.8583 43.1717 17.5065 42.801L16.7745 43.8277C17.2879 44.3505 18.0199 44.7307 19.018 44.8163V45.6719ZM20.6246 42.9531C20.6246 43.2478 20.3869 43.5235 19.9212 43.6185V42.3447C20.3299 42.4778 20.6246 42.6394 20.6246 42.9531ZM18.3526 40.1012C18.3526 39.778 18.5903 39.5403 19.018 39.4833V40.6431C18.6188 40.529 18.3526 40.3769 18.3526 40.1012ZM25.2376 44.8353C26.7681 44.8353 27.7758 43.9893 27.7758 42.6394C27.7758 41.3561 26.8156 40.586 25.7414 40.586C25.1615 40.586 24.6482 40.8142 24.344 41.1184V39.5688H27.3479V38.3806H22.9941V42.0215L23.9352 42.2687C24.3155 41.9074 24.7432 41.7553 25.2661 41.7553C25.9885 41.7553 26.4068 42.1356 26.4068 42.6964C26.4068 43.2098 25.9791 43.6375 25.2281 43.6375C24.5626 43.6375 23.9733 43.3904 23.5455 42.9436L22.7945 43.8847C23.3363 44.4741 24.1349 44.8353 25.2376 44.8353ZM31.0592 44.8353C32.8654 44.8353 33.683 43.1907 33.683 41.5557C33.683 39.9206 32.8654 38.2855 31.0592 38.2855C29.2435 38.2855 28.4355 39.9206 28.4355 41.5557C28.4355 43.1907 29.2435 44.8353 31.0592 44.8353ZM31.0592 43.6375C30.1466 43.6375 29.8043 42.7249 29.8043 41.5557C29.8043 40.3864 30.1466 39.4833 31.0592 39.4833C31.9623 39.4833 32.3046 40.3864 32.3046 41.5557C32.3046 42.7249 31.9623 43.6375 31.0592 43.6375ZM36.9542 44.8353C38.7604 44.8353 39.5779 43.1907 39.5779 41.5557C39.5779 39.9206 38.7604 38.2855 36.9542 38.2855C35.1385 38.2855 34.3304 39.9206 34.3304 41.5557C34.3304 43.1907 35.1385 44.8353 36.9542 44.8353ZM36.9542 43.6375C36.0416 43.6375 35.6994 42.7249 35.6994 41.5557C35.6994 40.3864 36.0416 39.4833 36.9542 39.4833C37.8573 39.4833 38.1995 40.3864 38.1995 41.5557C38.1995 42.7249 37.8573 43.6375 36.9542 43.6375ZM45.9577 44.7213L43.2675 41.356L45.7866 38.3806H44.1231L41.8796 41.2134V38.3806H40.5296V44.7213H41.8796V42.7725L42.3739 42.1831L44.2941 44.7213H45.9577Z" fill="#F2F2F2"/>
<mask id="mask1_89_295" style="mask-type:luminance" maskUnits="userSpaceOnUse" x="23" y="5" width="16" height="15">
<path d="M38.5841 5.10938H23.8926V19.8009H38.5841V5.10938Z" fill="white"/>
</mask>
<g mask="url(#mask1_89_295)">
<mask id="mask2_89_295" style="mask-type:luminance" maskUnits="userSpaceOnUse" x="23" y="4" width="16" height="16">
<path d="M38.005 4.97363H23.9283V19.0504H38.005V4.97363Z" fill="white"/>
</mask>
<g mask="url(#mask2_89_295)">
<path d="M29.0115 12.498L30.4778 13.9643L32.9217 10.5428M30.9666 5.95752C29.491 7.35882 27.5258 8.12741 25.491 8.09902C25.2322 8.88751 25.1006 9.71231 25.1013 10.5422C25.1013 14.1866 27.5934 17.2482 30.9666 18.1169C34.3398 17.2489 36.8319 14.1872 36.8319 10.5428C36.8319 9.68912 36.6951 8.86737 36.4422 8.09834H36.3431C34.2603 8.09834 32.3678 7.28503 30.9666 5.95752Z" stroke="white" stroke-width="0.586529" stroke-linecap="round" stroke-linejoin="round"/>
</g>
</g>
</g>
</g>
<defs>
<clipPath id="clip0_89_295">
<rect width="60.8355" height="54.7519" fill="white" transform="translate(0.386871 0.788086)"/>
</clipPath>
</defs>
</svg>
