<svg width="92" height="69" viewBox="0 0 92 69" fill="none" xmlns="http://www.w3.org/2000/svg">
<path fill-rule="evenodd" clip-rule="evenodd" d="M46.0565 3.23108C45.6615 3.23108 45.2703 3.30893 44.9053 3.46019C44.5404 3.61144 44.2088 3.83314 43.9294 4.11265C43.6501 4.39215 43.4285 4.72398 43.2773 5.08919C43.1261 5.45442 43.0482 5.84586 43.0482 6.24117V9.24757H49.0647V6.24117C49.0647 5.44277 48.7477 4.67713 48.1836 4.11265C47.6194 3.54817 46.8542 3.23108 46.0565 3.23108ZM49.9242 9.24757V6.24117C49.9242 5.21497 49.5168 4.23076 48.7915 3.50505C48.0661 2.77934 47.0823 2.37158 46.0565 2.37158C45.5485 2.37158 45.0455 2.4717 44.5763 2.66618C44.107 2.86066 43.6806 3.14572 43.3215 3.50505C42.9624 3.86439 42.6775 4.29096 42.4831 4.76043C42.2888 5.22988 42.1887 5.73304 42.1887 6.24117V9.24757H41.759C40.5723 9.24757 39.6102 10.2096 39.6102 11.3963V16.5533C39.6102 17.74 40.5723 18.7021 41.759 18.7021H50.354C51.5407 18.7021 52.5027 17.74 52.5027 16.5533V11.3963C52.5027 10.2096 51.5407 9.24757 50.354 9.24757H49.9242ZM45.197 15.6938V12.2558H46.916V15.6938H45.197ZM40.4697 11.3963C40.4697 10.6843 41.0469 10.1071 41.759 10.1071H50.354C51.066 10.1071 51.6432 10.6843 51.6432 11.3963V16.5533C51.6432 17.2653 51.066 17.8426 50.354 17.8426H41.759C41.0469 17.8426 40.4697 17.2653 40.4697 16.5533V11.3963Z" fill="white"/>
<path d="M12.6615 37.105L11.0717 31.2864L9.48183 37.105H8.50847L6.45358 29.8912H7.44858L9.04923 35.9045L10.704 29.8912H11.4502L13.1049 35.9045L14.6948 29.8912H15.6898L13.6349 37.105H12.6615ZM15.9252 34.4877C15.9252 32.9736 17.0068 31.7515 18.4993 31.7515C20.0783 31.7515 21.0084 32.9844 21.0084 34.5526V34.7581H16.7796C16.8445 35.7423 17.5367 36.5642 18.6615 36.5642C19.2563 36.5642 19.862 36.3263 20.273 35.9045L20.6623 36.4344C20.1432 36.9536 19.4402 37.2348 18.5858 37.2348C17.0392 37.2348 15.9252 36.1208 15.9252 34.4877ZM18.4884 32.422C17.3745 32.422 16.8229 33.3629 16.7796 34.1632H20.2081C20.1972 33.3846 19.6781 32.422 18.4884 32.422ZM25.1429 37.105V29.8912H28.0414C29.4906 29.8912 30.3018 30.8862 30.3018 32.0651C30.3018 33.244 29.469 34.239 28.0414 34.239H26.0406V37.105H25.1429ZM29.3717 32.0651C29.3717 31.254 28.7876 30.6916 27.9332 30.6916H26.0406V33.4386H27.9332C28.7876 33.4386 29.3717 32.8762 29.3717 32.0651ZM31.4581 37.105V31.8812H32.2692V32.7248C32.691 32.1732 33.2967 31.7731 34.0105 31.7731V32.6059C33.9131 32.5842 33.8158 32.5734 33.686 32.5734C33.1885 32.5734 32.5071 32.9844 32.2692 33.4062V37.105H31.4581ZM37.3099 37.2348C35.7201 37.2348 34.7251 36.0018 34.7251 34.4877C34.7251 32.9736 35.7201 31.7515 37.3099 31.7515C38.8998 31.7515 39.8948 32.9736 39.8948 34.4877C39.8948 36.0018 38.8998 37.2348 37.3099 37.2348ZM37.3099 36.5101C38.4239 36.5101 39.0404 35.5584 39.0404 34.4877C39.0404 33.4278 38.4239 32.4761 37.3099 32.4761C36.196 32.4761 35.5687 33.4278 35.5687 34.4877C35.5687 35.5584 36.196 36.5101 37.3099 36.5101ZM40.9143 34.4877C40.9143 32.9411 41.9633 31.7515 43.5207 31.7515C44.4725 31.7515 45.0349 32.1408 45.435 32.6599L44.8943 33.1574C44.5482 32.6816 44.1048 32.4761 43.564 32.4761C42.45 32.4761 41.7579 33.3305 41.7579 34.4877C41.7579 35.6449 42.45 36.5101 43.564 36.5101C44.1048 36.5101 44.5482 36.2938 44.8943 35.8288L45.435 36.3263C45.0349 36.8454 44.4725 37.2348 43.5207 37.2348C41.9633 37.2348 40.9143 36.0451 40.9143 34.4877ZM46.2691 34.4877C46.2691 32.9736 47.3506 31.7515 48.8431 31.7515C50.4221 31.7515 51.3522 32.9844 51.3522 34.5526V34.7581H47.1235C47.1884 35.7423 47.8805 36.5642 49.0053 36.5642C49.6001 36.5642 50.2058 36.3263 50.6168 35.9045L51.0061 36.4344C50.487 36.9536 49.784 37.2348 48.9296 37.2348C47.383 37.2348 46.2691 36.1208 46.2691 34.4877ZM48.8323 32.422C47.7183 32.422 47.1667 33.3629 47.1235 34.1632H50.5519C50.5411 33.3846 50.0219 32.422 48.8323 32.422ZM52.2118 36.4128L52.6336 35.8288C52.9796 36.2289 53.6394 36.575 54.3532 36.575C55.1535 36.575 55.5861 36.2181 55.5861 35.7098C55.5861 35.1366 54.948 34.9528 54.245 34.7797C53.3582 34.5742 52.3524 34.3363 52.3524 33.2548C52.3524 32.4436 53.0553 31.7515 54.2991 31.7515C55.1859 31.7515 55.8132 32.0867 56.235 32.5085L55.8565 33.0709C55.5428 32.6924 54.9696 32.4112 54.2991 32.4112C53.5853 32.4112 53.1419 32.7356 53.1419 33.2007C53.1419 33.709 53.7367 33.8712 54.4181 34.0335C55.3265 34.239 56.3756 34.4985 56.3756 35.6557C56.3756 36.5318 55.6726 37.2348 54.3207 37.2348C53.4663 37.2348 52.7417 36.9752 52.2118 36.4128ZM57.2391 36.4128L57.6609 35.8288C58.007 36.2289 58.6667 36.575 59.3805 36.575C60.1809 36.575 60.6135 36.2181 60.6135 35.7098C60.6135 35.1366 59.9754 34.9528 59.2724 34.7797C58.3855 34.5742 57.3797 34.3363 57.3797 33.2548C57.3797 32.4436 58.0827 31.7515 59.3265 31.7515C60.2133 31.7515 60.8406 32.0867 61.2624 32.5085L60.8839 33.0709C60.5702 32.6924 59.997 32.4112 59.3265 32.4112C58.6127 32.4112 58.1692 32.7356 58.1692 33.2007C58.1692 33.709 58.7641 33.8712 59.4454 34.0335C60.3539 34.239 61.403 34.4985 61.403 35.6557C61.403 36.5318 60.7 37.2348 59.3481 37.2348C58.4937 37.2348 57.7691 36.9752 57.2391 36.4128ZM67.6396 37.105V34.0551L64.7952 29.8912H65.8443L68.0831 33.244L70.3218 29.8912H71.3709L68.5373 34.0551V37.105H67.6396ZM73.1881 37.2348C71.5983 37.2348 70.6033 36.0018 70.6033 34.4877C70.6033 32.9736 71.5983 31.7515 73.1881 31.7515C74.7779 31.7515 75.7729 32.9736 75.7729 34.4877C75.7729 36.0018 74.7779 37.2348 73.1881 37.2348ZM73.1881 36.5101C74.3021 36.5101 74.9185 35.5584 74.9185 34.4877C74.9185 33.4278 74.3021 32.4761 73.1881 32.4761C72.0741 32.4761 71.4468 33.4278 71.4468 34.4877C71.4468 35.5584 72.0741 36.5101 73.1881 36.5101ZM80.621 37.105V36.3695C80.2209 36.8238 79.5395 37.2348 78.7608 37.2348C77.6685 37.2348 77.0953 36.7048 77.0953 35.5692V31.8812H77.9064V35.3205C77.9064 36.2398 78.3715 36.5101 79.0744 36.5101C79.7125 36.5101 80.3182 36.1424 80.621 35.7206V31.8812H81.4322V37.105H80.621ZM83.0521 37.105V31.8812H83.8632V32.7248C84.285 32.1732 84.8906 31.7731 85.6044 31.7731V32.6059C85.5071 32.5842 85.4098 32.5734 85.28 32.5734C84.7825 32.5734 84.1011 32.9844 83.8632 33.4062V37.105H83.0521ZM1.90186 50.105V42.8912H4.36772C6.60647 42.8912 8.06652 44.4594 8.06652 46.5035C8.06652 48.5584 6.60647 50.105 4.36772 50.105H1.90186ZM2.79952 49.3047H4.36772C6.11978 49.3047 7.13641 48.0501 7.13641 46.5035C7.13641 44.9461 6.15223 43.6916 4.36772 43.6916H2.79952V49.3047ZM12.7084 50.105V49.5101C12.2757 49.986 11.6809 50.2348 10.9779 50.2348C10.0911 50.2348 9.15015 49.6399 9.15015 48.5043C9.15015 47.3363 10.0911 46.7847 10.9779 46.7847C11.6917 46.7847 12.2866 47.0118 12.7084 47.4985V46.5576C12.7084 45.8546 12.146 45.4544 11.3889 45.4544C10.7616 45.4544 10.2533 45.6816 9.78825 46.1791L9.40972 45.6167C9.97211 45.0327 10.6426 44.7515 11.4971 44.7515C12.6002 44.7515 13.5195 45.249 13.5195 46.5143V50.105H12.7084ZM12.7084 49.0018V48.0176C12.3947 47.585 11.8431 47.3687 11.2699 47.3687C10.5129 47.3687 9.98292 47.8446 9.98292 48.5151C9.98292 49.1749 10.5129 49.6507 11.2699 49.6507C11.8431 49.6507 12.3947 49.4344 12.7084 49.0018ZM16.4649 50.2348C15.6971 50.2348 15.3077 49.7913 15.3077 49.0126V45.595H14.4425V44.8812H15.3077V43.4536H16.1189V44.8812H17.1787V45.595H16.1189V48.8396C16.1189 49.2289 16.2919 49.5101 16.6488 49.5101C16.8759 49.5101 17.0922 49.4128 17.2004 49.2938L17.4383 49.8995C17.2328 50.0942 16.9408 50.2348 16.4649 50.2348ZM21.5908 50.105V49.5101C21.1582 49.986 20.5633 50.2348 19.8603 50.2348C18.9735 50.2348 18.0326 49.6399 18.0326 48.5043C18.0326 47.3363 18.9735 46.7847 19.8603 46.7847C20.5741 46.7847 21.169 47.0118 21.5908 47.4985V46.5576C21.5908 45.8546 21.0284 45.4544 20.2713 45.4544C19.644 45.4544 19.1357 45.6816 18.6707 46.1791L18.2921 45.6167C18.8545 45.0327 19.5251 44.7515 20.3795 44.7515C21.4826 44.7515 22.4019 45.249 22.4019 46.5143V50.105H21.5908ZM21.5908 49.0018V48.0176C21.2771 47.585 20.7255 47.3687 20.1523 47.3687C19.3953 47.3687 18.8653 47.8446 18.8653 48.5151C18.8653 49.1749 19.3953 49.6507 20.1523 49.6507C20.7255 49.6507 21.2771 49.4344 21.5908 49.0018ZM26.416 49.0884L26.946 48.407C27.4218 48.9369 28.2005 49.4344 29.2172 49.4344C30.5042 49.4344 30.9151 48.7423 30.9151 48.1907C30.9151 47.3255 30.0391 47.0875 29.0874 46.828C27.9302 46.5251 26.6431 46.2007 26.6431 44.7839C26.6431 43.5942 27.703 42.7831 29.1198 42.7831C30.223 42.7831 31.0774 43.1508 31.683 43.7889L31.1423 44.4486C30.6015 43.8538 29.8444 43.5834 29.0549 43.5834C28.1897 43.5834 27.5733 44.0485 27.5733 44.7298C27.5733 45.4544 28.406 45.6707 29.3253 45.9195C30.5042 46.2331 31.8453 46.6009 31.8453 48.115C31.8453 49.1641 31.1315 50.2348 29.1847 50.2348C27.9302 50.2348 27.0109 49.7589 26.416 49.0884ZM32.8504 47.4877C32.8504 45.9736 33.9319 44.7515 35.4244 44.7515C37.0034 44.7515 37.9335 45.9844 37.9335 47.5526V47.7581H33.7048C33.7697 48.7423 34.4619 49.5642 35.5866 49.5642C36.1815 49.5642 36.7871 49.3263 37.1981 48.9045L37.5875 49.4344C37.0683 49.9536 36.3653 50.2348 35.5109 50.2348C33.9644 50.2348 32.8504 49.1208 32.8504 47.4877ZM35.4136 45.422C34.2996 45.422 33.7481 46.3629 33.7048 47.1632H37.1332C37.1224 46.3846 36.6033 45.422 35.4136 45.422ZM38.9445 47.4877C38.9445 45.9411 39.9936 44.7515 41.551 44.7515C42.5027 44.7515 43.0651 45.1408 43.4653 45.6599L42.9245 46.1574C42.5784 45.6816 42.135 45.4761 41.5942 45.4761C40.4803 45.4761 39.7881 46.3305 39.7881 47.4877C39.7881 48.6449 40.4803 49.5101 41.5942 49.5101C42.135 49.5101 42.5784 49.2938 42.9245 48.8288L43.4653 49.3263C43.0651 49.8454 42.5027 50.2348 41.551 50.2348C39.9936 50.2348 38.9445 49.0451 38.9445 47.4877ZM48.1279 50.105V49.3695C47.7277 49.8238 47.0464 50.2348 46.2677 50.2348C45.1753 50.2348 44.6021 49.7048 44.6021 48.5692V44.8812H45.4133V48.3205C45.4133 49.2398 45.8783 49.5101 46.5813 49.5101C47.2194 49.5101 47.8251 49.1424 48.1279 48.7206V44.8812H48.939V50.105H48.1279ZM50.5589 50.105V44.8812H51.3701V45.7248C51.7919 45.1732 52.3975 44.7731 53.1113 44.7731V45.6059C53.014 45.5842 52.9166 45.5734 52.7869 45.5734C52.2894 45.5734 51.608 45.9844 51.3701 46.4062V50.105H50.5589ZM53.826 47.4877C53.826 45.9736 54.9075 44.7515 56.4 44.7515C57.979 44.7515 58.9091 45.9844 58.9091 47.5526V47.7581H54.6804C54.7453 48.7423 55.4374 49.5642 56.5622 49.5642C57.157 49.5642 57.7627 49.3263 58.1737 48.9045L58.563 49.4344C58.0439 49.9536 57.3409 50.2348 56.4865 50.2348C54.9399 50.2348 53.826 49.1208 53.826 47.4877ZM56.3892 45.422C55.2752 45.422 54.7236 46.3629 54.6804 47.1632H58.1088C58.098 46.3846 57.5788 45.422 56.3892 45.422ZM60.2229 50.105V42.8912H61.034V50.105H60.2229ZM62.4899 51.4136C62.6088 51.4677 62.8035 51.5001 62.9333 51.5001C63.2902 51.5001 63.5281 51.3812 63.712 50.9486L64.0581 50.1591L61.8734 44.8812H62.7494L64.4907 49.1641L66.2211 44.8812H67.108L64.4907 51.1649C64.177 51.9219 63.6471 52.2139 62.9549 52.2248C62.7819 52.2248 62.5115 52.1923 62.3601 52.1491L62.4899 51.4136ZM76.2906 50.105L74.7007 44.2864L73.1109 50.105H72.1375L70.0827 42.8912H71.0777L72.6783 48.9045L74.333 42.8912H75.0793L76.734 48.9045L78.3238 42.8912H79.3188L77.2639 50.105H76.2906ZM80.6903 44.0052C80.3983 44.0052 80.1496 43.7565 80.1496 43.4536C80.1496 43.1508 80.3983 42.9129 80.6903 42.9129C80.9932 42.9129 81.2419 43.1508 81.2419 43.4536C81.2419 43.7565 80.9932 44.0052 80.6903 44.0052ZM80.2902 50.105V44.8812H81.1013V50.105H80.2902ZM84.0388 50.2348C83.2709 50.2348 82.8816 49.7913 82.8816 49.0126V45.595H82.0164V44.8812H82.8816V43.4536H83.6927V44.8812H84.7526V45.595H83.6927V48.8396C83.6927 49.2289 83.8658 49.5101 84.2227 49.5101C84.4498 49.5101 84.6661 49.4128 84.7742 49.2938L85.0122 49.8995C84.8067 50.0942 84.5147 50.2348 84.0388 50.2348ZM89.435 50.105V46.6657C89.435 45.7465 88.9591 45.4761 88.2561 45.4761C87.6289 45.4761 87.0232 45.8654 86.7096 46.2872V50.105H85.8984V42.8912H86.7096V45.6383C87.0773 45.2057 87.7911 44.7515 88.5806 44.7515C89.6729 44.7515 90.2461 45.2814 90.2461 46.417V50.105H89.435ZM10.6846 64.105L8.38096 61.0335L6.07733 64.105H4.98499L7.79694 60.4062L5.14722 56.8912H6.23955L8.38096 59.7789L10.5116 56.8912H11.6039L8.96499 60.3954L11.7661 64.105H10.6846ZM17.7398 64.105L15.4362 61.0335L13.1326 64.105H12.0402L14.8522 60.4062L12.2024 56.8912H13.2948L15.4362 59.7789L17.5668 56.8912H18.6591L16.0202 60.3954L18.8214 64.105H17.7398ZM22.5975 64.105V56.8912H25.8097C27.0642 56.8912 27.8321 57.6483 27.8321 58.7298C27.8321 59.6383 27.2265 60.244 26.5667 60.3846C27.3346 60.5035 27.9727 61.293 27.9727 62.1582C27.9727 63.3155 27.2048 64.105 25.8854 64.105H22.5975ZM23.4952 60.0168H25.6582C26.4694 60.0168 26.902 59.5193 26.902 58.8596C26.902 58.2107 26.4694 57.6916 25.6582 57.6916H23.4952V60.0168ZM23.4952 63.3047H25.7015C26.5451 63.3047 27.0426 62.8288 27.0426 62.0609C27.0426 61.4012 26.5884 60.8172 25.7015 60.8172H23.4952V63.3047ZM29.767 58.0052C29.475 58.0052 29.2262 57.7565 29.2262 57.4536C29.2262 57.1508 29.475 56.9129 29.767 56.9129C30.0698 56.9129 30.3186 57.1508 30.3186 57.4536C30.3186 57.7565 30.0698 58.0052 29.767 58.0052ZM29.3668 64.105V58.8812H30.178V64.105H29.3668ZM33.1155 64.2348C32.3476 64.2348 31.9583 63.7913 31.9583 63.0126V59.595H31.0931V58.8812H31.9583V57.4536H32.7694V58.8812H33.8293V59.595H32.7694V62.8396C32.7694 63.2289 32.9425 63.5101 33.2994 63.5101C33.5265 63.5101 33.7428 63.4128 33.8509 63.2938L34.0889 63.8995C33.8834 64.0942 33.5914 64.2348 33.1155 64.2348ZM37.7959 64.105V56.8912H42.5221V57.6916H38.6935V60.0168H42.4464V60.8172H38.6935V63.3047H42.5221V64.105H37.7959ZM47.4467 64.105V60.6874C47.4467 59.7681 46.9816 59.4761 46.2786 59.4761C45.6405 59.4761 45.0349 59.8654 44.732 60.2872V64.105H43.9209V58.8812H44.732V59.6383C45.0998 59.2057 45.8136 58.7515 46.5923 58.7515C47.6846 58.7515 48.2578 59.303 48.2578 60.4386V64.105H47.4467ZM49.5749 61.4877C49.5749 59.9411 50.624 58.7515 52.1813 58.7515C53.1331 58.7515 53.6955 59.1408 54.0956 59.6599L53.5549 60.1574C53.2088 59.6816 52.7654 59.4761 52.2246 59.4761C51.1106 59.4761 50.4185 60.3305 50.4185 61.4877C50.4185 62.6449 51.1106 63.5101 52.2246 63.5101C52.7654 63.5101 53.2088 63.2938 53.5549 62.8288L54.0956 63.3263C53.6955 63.8454 53.1331 64.2348 52.1813 64.2348C50.624 64.2348 49.5749 63.0451 49.5749 61.4877ZM55.2325 64.105V58.8812H56.0436V59.7248C56.4654 59.1732 57.0711 58.7731 57.7849 58.7731V59.6059C57.6875 59.5842 57.5902 59.5734 57.4604 59.5734C56.9629 59.5734 56.2816 59.9844 56.0436 60.4062V64.105H55.2325ZM58.6401 65.4136C58.7591 65.4677 58.9538 65.5001 59.0835 65.5001C59.4405 65.5001 59.6784 65.3812 59.8622 64.9486L60.2083 64.1591L58.0237 58.8812H58.8997L60.6409 63.1641L62.3714 58.8812H63.2582L60.6409 65.1649C60.3273 65.9219 59.7974 66.2139 59.1052 66.2248C58.9321 66.2248 58.6618 66.1923 58.5103 66.1491L58.6401 65.4136ZM64.9155 66.095H64.1043V58.8812H64.9155V59.6599C65.294 59.13 65.9429 58.7515 66.6784 58.7515C68.0519 58.7515 69.0036 59.7897 69.0036 61.4877C69.0036 63.1749 68.0519 64.2348 66.6784 64.2348C65.9646 64.2348 65.3373 63.8995 64.9155 63.3155V66.095ZM68.1492 61.4877C68.1492 60.3305 67.5219 59.4761 66.4729 59.4761C65.8348 59.4761 65.1967 59.8546 64.9155 60.3088V62.6666C65.1967 63.1208 65.8348 63.5101 66.4729 63.5101C67.5219 63.5101 68.1492 62.6449 68.1492 61.4877ZM71.6341 64.2348C70.8662 64.2348 70.4769 63.7913 70.4769 63.0126V59.595H69.6116V58.8812H70.4769V57.4536H71.288V58.8812H72.3479V59.595H71.288V62.8396C71.288 63.2289 71.461 63.5101 71.8179 63.5101C72.0451 63.5101 72.2614 63.4128 72.3695 63.2938L72.6074 63.8995C72.402 64.0942 72.1099 64.2348 71.6341 64.2348ZM73.8939 58.0052C73.6019 58.0052 73.3531 57.7565 73.3531 57.4536C73.3531 57.1508 73.6019 56.9129 73.8939 56.9129C74.1967 56.9129 74.4454 57.1508 74.4454 57.4536C74.4454 57.7565 74.1967 58.0052 73.8939 58.0052ZM73.4937 64.105V58.8812H74.3048V64.105H73.4937ZM78.2049 64.2348C76.6151 64.2348 75.6201 63.0018 75.6201 61.4877C75.6201 59.9736 76.6151 58.7515 78.2049 58.7515C79.7947 58.7515 80.7897 59.9736 80.7897 61.4877C80.7897 63.0018 79.7947 64.2348 78.2049 64.2348ZM78.2049 63.5101C79.3189 63.5101 79.9353 62.5584 79.9353 61.4877C79.9353 60.4278 79.3189 59.4761 78.2049 59.4761C77.0909 59.4761 76.4637 60.4278 76.4637 61.4877C76.4637 62.5584 77.0909 63.5101 78.2049 63.5101ZM85.6378 64.105V60.6874C85.6378 59.7681 85.1728 59.4761 84.4698 59.4761C83.8317 59.4761 83.226 59.8654 82.9232 60.2872V64.105H82.1121V58.8812H82.9232V59.6383C83.2909 59.2057 84.0047 58.7515 84.7834 58.7515C85.8758 58.7515 86.449 59.303 86.449 60.4386V64.105H85.6378Z" fill="white"/>
</svg>
