<svg width="23" height="24" viewBox="0 0 23 24" fill="none" xmlns="http://www.w3.org/2000/svg">
<g clip-path="url(#clip0_89_263)">
<path fill-rule="evenodd" clip-rule="evenodd" d="M22.5095 9.29504C21.2918 4.24327 16.9464 0.797985 11.6935 0.738281C11.0016 0.749821 10.2776 0.806013 9.56169 0.956528C2.23363 2.4406 -1.56386 10.5649 2.00836 17.1248C2.10017 17.3004 2.1077 17.4424 2.05652 17.624C1.5814 19.3534 1.11129 21.0824 0.637673 22.8057C0.586498 22.9947 0.655567 23.0646 0.844881 23.0155C2.63801 22.5449 4.42814 22.0798 6.21976 21.6036C6.36827 21.564 6.48467 21.5806 6.62063 21.6488C8.92853 22.8278 11.3593 23.174 13.9045 22.6808C19.9863 21.5013 23.9609 15.3156 22.51 9.29454L22.5095 9.29504ZM13.2438 20.9063C12.7436 20.9915 12.2404 21.0367 11.9754 21.0312C10.0263 21.0252 8.43735 20.5887 6.97635 19.7046C6.78921 19.5913 6.62615 19.5627 6.40791 19.6194C5.42555 19.8913 4.43616 20.1351 3.4523 20.396C3.24509 20.4582 3.22552 20.4131 3.2782 20.2259C3.5391 19.2907 3.78393 18.361 4.05335 17.4364C4.12811 17.1755 4.10152 16.9773 3.95251 16.7445C1.9311 13.4959 2.01639 9.44807 4.27862 6.44279C6.62916 3.31359 9.82359 2.03221 13.6467 2.8485C17.414 3.64221 19.8153 6.07453 20.6983 9.82235C21.9044 14.9474 18.426 20.0443 13.2443 20.9063H13.2438Z" fill="white"/>
<path fill-rule="evenodd" clip-rule="evenodd" d="M14.5938 17.1361C14.1984 17.1531 13.8211 17.0623 13.4428 16.96C10.8986 16.229 8.98962 14.6355 7.45587 12.5378C6.87639 11.7496 6.33905 10.9334 6.16044 9.9525C5.94621 8.77296 6.28487 7.77555 7.16237 6.95876C7.44183 6.70339 8.29173 6.5905 8.6319 6.75456C8.75833 6.81677 8.8391 6.93066 8.89128 7.04957C9.21288 7.81519 9.53047 8.56877 9.84505 9.33438C9.90475 9.48189 9.87916 9.62337 9.81243 9.77088C9.65088 10.1226 9.39099 10.4055 9.12759 10.6835C8.92791 10.8877 8.91938 11.0748 9.06638 11.3187C9.96496 12.8153 11.2082 13.904 12.8338 14.5557C13.0761 14.6521 13.2592 14.618 13.4203 14.4143C13.6912 14.0796 13.9772 13.745 14.2341 13.3993C14.4097 13.1555 14.6113 13.1213 14.8592 13.2347C15.3965 13.4786 15.9334 13.7339 16.4707 13.9888C16.5911 14.04 16.71 14.1022 16.8294 14.1589C17.3738 14.4313 17.3683 14.4368 17.3216 15.0374C17.2308 16.2109 16.3508 16.7894 15.3072 17.0789C15.0774 17.1411 14.8336 17.1466 14.5928 17.1356L14.5938 17.1361Z" fill="white"/>
</g>
<defs>
<clipPath id="clip0_89_263">
<rect width="22.215" height="22.3188" fill="white" transform="translate(0.593994 0.738281)"/>
</clipPath>
</defs>
</svg>
